<svg xmlns="http://www.w3.org/2000/svg" width="64" height="59.292" viewBox="0 0 64 59.292">
  <g id="dfd7003b99a2c504402a0b89dc258c99" transform="translate(-10 -46.1)">
    <g id="Group_38" data-name="Group 38" transform="translate(10 46.1)">
      <path id="Path_257" data-name="Path 257" d="M73.517,49.456a1.138,1.138,0,0,0-1.032-.131L61.977,53.277a13.727,13.727,0,0,0-3.585,0L47.884,49.332a1.1,1.1,0,0,0-1.032.131,1.127,1.127,0,0,0-.483.921V67.122H35.156a14.465,14.465,0,0,0-11.84,6.184H21.892a4.029,4.029,0,0,1-4.023-4.023.633.633,0,0,0-.007-.111V50.031a3.931,3.931,0,1,0-7.863,0v19.6a4.071,4.071,0,0,0,.033.47A11.923,11.923,0,0,0,20.691,81.117c-.007.189-.013.372-.013.562V101.3a3.9,3.9,0,0,0,3.9,3.9H26.1a3.9,3.9,0,0,0,3.9-3.9V93.714a1.781,1.781,0,0,1,1.659-1.8H31.8a1.719,1.719,0,0,1,1.659,1.724v7.85a3.9,3.9,0,0,0,3.9,3.9h1.528a3.9,3.9,0,0,0,3.9-3.9V91.905h4.069v9.385a3.9,3.9,0,0,0,3.9,3.9h1.528a3.9,3.9,0,0,0,3.9-3.9V93.3a1.781,1.781,0,0,1,1.659-1.8h1.535a1.719,1.719,0,0,1,1.659,1.724v8.268a3.9,3.9,0,0,0,3.9,3.9h1.528a3.9,3.9,0,0,0,3.9-3.9V76.323A13.784,13.784,0,0,0,74,67V50.384A1.139,1.139,0,0,0,73.517,49.456ZM48.616,52l6.1,2.292a13.9,13.9,0,0,0-6.1,5.146ZM12.26,69.78l-.013-19.749a1.688,1.688,0,1,1,3.376,0V69.277a.79.79,0,0,0,.007.124A6.275,6.275,0,0,0,21.9,75.546h.124a14.145,14.145,0,0,0-1.078,3.337C16.269,78.433,12.26,73.9,12.26,69.78Zm28.284,31.706a1.661,1.661,0,0,1-1.659,1.659H37.363a1.661,1.661,0,0,1-1.659-1.659V93.643a3.782,3.782,0,0,0-.418-1.731h5.257Zm25.913,1.659H64.929a1.661,1.661,0,0,1-1.659-1.659V93.225a3.941,3.941,0,0,0-3.9-3.971H57.843a4.023,4.023,0,0,0-3.9,3.945c0,.033-.007.065-.007.1v8a1.661,1.661,0,0,1-1.659,1.659H50.751a1.661,1.661,0,0,1-1.659-1.659V85.1a1.123,1.123,0,0,0-2.247,0v4.565H31.669a4.029,4.029,0,0,0-3.9,3.951c0,.033-.007.065-.007.1V101.3a1.661,1.661,0,0,1-1.659,1.659H24.576a1.661,1.661,0,0,1-1.659-1.659V81.672A12.32,12.32,0,0,1,31.577,69.9v4.865a1.123,1.123,0,0,0,2.247,0V69.44a12.809,12.809,0,0,1,1.332-.072h1.561v8.039a1.123,1.123,0,0,0,2.247,0V69.362h2.893v10.73a1.123,1.123,0,1,0,2.247,0V69.362h2.475a13.808,13.808,0,0,0,21.538,8.927v23.2A1.66,1.66,0,0,1,66.457,103.145ZM60.188,78.55A11.572,11.572,0,1,1,71.76,66.978,11.586,11.586,0,0,1,60.188,78.55ZM65.654,54.3,71.754,52v7.438A13.9,13.9,0,0,0,65.654,54.3Z" transform="translate(-10 -46.1)" fill="#9a9a9a"/>
      <path id="Path_258" data-name="Path 258" d="M726.946,386.4h-5.322a1.123,1.123,0,0,0,0,2.247h1.541v5.081a1.123,1.123,0,1,0,2.247,0v-5.081h1.541a1.123,1.123,0,1,0-.007-2.247Z" transform="translate(-674.1 -364.176)" fill="#9a9a9a"/>
    </g>
  </g>
</svg>
