<svg xmlns="http://www.w3.org/2000/svg" xmlns:xlink="http://www.w3.org/1999/xlink" width="87" height="87" viewBox="0 0 87 87">
  <defs>
    <filter id="Ellipse_44" x="0" y="0" width="87" height="87" filterUnits="userSpaceOnUse">
      <feOffset input="SourceAlpha"/>
      <feGaussianBlur stdDeviation="6" result="blur"/>
      <feFlood flood-color="#727272" flood-opacity="0.161"/>
      <feComposite operator="in" in2="blur"/>
      <feComposite in="SourceGraphic"/>
    </filter>
  </defs>
  <g id="Group_9" data-name="Group 9" transform="translate(-24 -620)">
    <g transform="matrix(1, 0, 0, 1, 24, 620)" filter="url(#Ellipse_44)">
      <circle id="Ellipse_44-2" data-name="Ellipse 44" cx="25.5" cy="25.5" r="25.5" transform="translate(18 18)" fill="#fff"/>
    </g>
    <path id="Icon_awesome-facebook" data-name="Icon awesome-facebook" d="M32.413,16.488A15.925,15.925,0,1,0,14,32.22V21.091H9.954v-4.6H14V12.979c0-3.991,2.376-6.2,6.015-6.2a24.508,24.508,0,0,1,3.565.311v3.917H21.571A2.3,2.3,0,0,0,18.976,13.5v2.989h4.417l-.706,4.6h-3.71V32.22A15.931,15.931,0,0,0,32.413,16.488Z" transform="translate(51.437 647.609)" fill="#3c4e98"/>
  </g>
</svg>
