<svg id="Group_20696" data-name="Group 20696" xmlns="http://www.w3.org/2000/svg" width="19.161" height="19.593" viewBox="0 0 19.161 19.593">
  <g id="Group_20694" data-name="Group 20694" transform="translate(0.745 0)">
    <path id="Path_38915" data-name="Path 38915" d="M11.207,3.418a7.79,7.79,0,1,1-7.789,7.789A7.8,7.8,0,0,1,11.207,3.418Zm0,17A9.208,9.208,0,1,0,2,11.208,9.219,9.219,0,0,0,11.207,20.416Z" transform="translate(-2 0)" fill="#57739a" fill-rule="evenodd"/>
  </g>
  <g id="Group_20695" data-name="Group 20695" transform="translate(0 14.851)">
    <path id="Path_38916" data-name="Path 38916" d="M17.949,22.449a.71.71,0,0,0,.5-.207l3.332-3.323a.71.71,0,0,0-1-1.005l-3.332,3.324a.71.71,0,0,0,.5,1.211Z" transform="translate(-17.24 -17.707)" fill="#57739a" fill-rule="evenodd"/>
  </g>
</svg>
