<svg xmlns="http://www.w3.org/2000/svg" width="18.779" height="18.697" viewBox="0 0 18.779 18.697">
  <g id="icon" transform="translate(-9.999 -12.139)">
    <g id="Group_29" data-name="Group 29" transform="translate(9.999 12.139)">
      <path id="Path_215" data-name="Path 215" d="M14.774-498.751a1.126,1.126,0,0,0-.2.4c-.161.575-.107.541-.458.283-.4-.293-.541-.341-.727-.244-.229.117-.322.376-.332.888l-.01.444-.254.239a2.623,2.623,0,0,0-.4.488c-.151.249-.161.254-1.161.741-1.17.566-1.244.634-1.239,1.083,0,.341.1.532.478.9a3.621,3.621,0,0,0,2.156.961l.483.058.02,2.024c.044,4.536.044,4.545-.288,5.789a4.382,4.382,0,0,1-1.39,2.448c-.585.507-.814.844-.844,1.219-.02.268-.01.3.127.454.166.185.073.176,1.424.151l.7-.01.3-.3a29.43,29.43,0,0,0,2.468-3.56,1.491,1.491,0,0,1,.19-.283,2.427,2.427,0,0,1,.088.488,5.666,5.666,0,0,0,.366,1.366c.029.058-.039.093-.366.156a2.12,2.12,0,0,0-1.117.532.962.962,0,0,0-.132.366,1.566,1.566,0,0,0,.527,1.068l.249.244h2.57a13.965,13.965,0,0,0,2.78-.083,3.66,3.66,0,0,0,.961-.653l.293-.254.239.166a7.612,7.612,0,0,0,2.37.932,6.453,6.453,0,0,0,2.146,0,2.5,2.5,0,0,0,1.931-2.092,5.035,5.035,0,0,0-.058-1.751c-.132-.7-.361-.8-.9-.395a6.173,6.173,0,0,1-2.107,1.044,5.428,5.428,0,0,1-1.951.049c-.317-.112-.327-.141-.327-.863a7.771,7.771,0,0,0-1.673-5.418,5.744,5.744,0,0,0-2.814-1.634,2.65,2.65,0,0,1-.454-.141,2.592,2.592,0,0,1-.137-.492,17.739,17.739,0,0,0-1.219-3.6,4.434,4.434,0,0,1-.366-1.049,2.9,2.9,0,0,0-1.307-2.1C15.12-498.9,14.935-498.912,14.774-498.751Zm.98,1.57a1.573,1.573,0,0,1,.2.727,1.724,1.724,0,0,0,.2.727,16.863,16.863,0,0,1,1.5,4.492c.049.38.112.439.536.536a5,5,0,0,1,3.716,2.653,9.038,9.038,0,0,1,.7,3.726c0,.844.068,1.127.317,1.346a1.5,1.5,0,0,0,.854.376,5.705,5.705,0,0,0,3.76-.8c.478-.278.468-.283.478.361a2.824,2.824,0,0,1-.219,1.156,1.934,1.934,0,0,1-1.336.917,5.811,5.811,0,0,1-4-1.044,1.488,1.488,0,0,0-.473-.273c-.083,0-.263.141-.585.454a7.116,7.116,0,0,1-.668.575l-.2.117-2.395.015-2.395.015-.063-.151c-.141-.337.229-.556,1.122-.663.312-.034.488-.166.488-.366a1.973,1.973,0,0,0-.19-.517,3.336,3.336,0,0,1-.395-2.029c.029-.283-.1-.376-.649-.473a1.179,1.179,0,0,0-.59-.029,3.5,3.5,0,0,0-.644.883c-.688,1.1-1.448,2.238-1.858,2.78l-.337.439-.536.039c-.824.054-.819.058-.317-.322a3.757,3.757,0,0,0,1.322-1.59,10.588,10.588,0,0,0,.878-4.248c0-.336-.024-.971-.054-1.414a27.328,27.328,0,0,1,.024-3.682,1.6,1.6,0,0,0,.015-.707.405.405,0,0,0-.5-.2A3.02,3.02,0,0,1,11-494.094c-.137-.137-.244-.273-.234-.3a8.267,8.267,0,0,1,.99-.512c.532-.249,1-.483,1.034-.512a1.172,1.172,0,0,0,.181-.278,1.348,1.348,0,0,1,.615-.663c.161-.078.249-.156.268-.239a1.922,1.922,0,0,0-.063-.678c-.024-.088-.02-.088.137,0a3.267,3.267,0,0,1,.414.346c.21.215.283.259.424.259.268,0,.361-.156.4-.673a3.739,3.739,0,0,1,.058-.463C15.271-497.892,15.588-497.517,15.754-497.18Z" transform="translate(-9.999 498.861)" fill="#dcdcdc"/>
    </g>
  </g>
</svg>
