<svg xmlns="http://www.w3.org/2000/svg" width="35.213" height="35.534" viewBox="0 0 35.213 35.534">
  <g id="icon" transform="translate(-8.999 -13.139)">
    <g id="_019401c9e5c40519f653817413e4273b" data-name="019401c9e5c40519f653817413e4273b" transform="translate(-1.01 7.595)">
      <g id="Group_30" data-name="Group 30" transform="translate(10.009 5.544)">
        <path id="Path_219" data-name="Path 219" d="M17.978-505.334a2.139,2.139,0,0,0-.43.387l-.2.258-.315-.229a.935.935,0,0,0-.652-.229c-.738,0-1.082.559-1.412,2.294-.022.107-.365.3-1.433.788-2.587,1.175-3.4,1.706-3.512,2.286-.043.251-.007.365.4,1.147.824,1.605,1.283,1.863,3.419,1.971a3.306,3.306,0,0,1,1.491.244c.38.172.5.28.91.824a9.467,9.467,0,0,1,.688,1.054,18.791,18.791,0,0,1,1.054,4.73c.265,2.3.752,5.612.853,5.848a1.737,1.737,0,0,0,1.655,1.068,1.723,1.723,0,0,0,1.7-1.2c.129-.545,1.333-4.042,1.412-4.121.043-.043.258-.043.631.014a19.692,19.692,0,0,0,7.726-.452c.122-.036.394.287,1.605,1.856,2.523,3.268,2.845,3.619,3.44,3.827a1.678,1.678,0,0,0,1.691-.387c.5-.5.538-.817.358-3.3-.057-.789-.137-2.272-.18-3.3a25.8,25.8,0,0,0-.394-4.8l-.172-.7.151-.616a6.28,6.28,0,0,0,.029-2.681,1.816,1.816,0,0,0-.831-1.061,1.156,1.156,0,0,0-1.054.151,1.752,1.752,0,0,0-.452.9c0,.323-.688.76-1.032.667a30.611,30.611,0,0,0-5.346-.53,40.28,40.28,0,0,1-6.809-.674,4.133,4.133,0,0,1-.881-.946c-.344-.451-.9-1.118-1.24-1.484-.609-.659-.616-.674-.745-1.254-.365-1.62-.86-2.387-1.6-2.465A.719.719,0,0,0,17.978-505.334Zm.724,1.362a7.953,7.953,0,0,1,.5,1.8c.043.28.122.4.631.91a3.877,3.877,0,0,1,.545.616c-.014.022-.982.752-2.143,1.627s-2.15,1.627-2.2,1.663-.251.007-.566-.122a4.19,4.19,0,0,0-1.67-.251c-1.613-.072-1.885-.194-2.25-1a5.966,5.966,0,0,0-.344-.667l-.136-.193.229-.172a31.868,31.868,0,0,1,3.318-1.67l1.29-.588.093-.638a5.583,5.583,0,0,1,.351-1.4c.064-.115.394.272.76.9.2.351.387.609.416.573s.151-.308.28-.623c.287-.724.559-1.2.652-1.147A2.1,2.1,0,0,1,18.7-503.972Zm2.609,4.436.215.28-2.129,1.62-2.129,1.613-.229-.258c-.129-.151-.229-.294-.215-.323.022-.065,4.15-3.2,4.221-3.2A1.28,1.28,0,0,1,21.311-499.536Zm16.212,1.2a5.725,5.725,0,0,1-.172,2.4c-.165.5-.172.552-.072.788a8.811,8.811,0,0,1,.452,3.117c.079,1.957.172,3.569.33,5.97.1,1.52.1,1.684,0,1.842a.539.539,0,0,1-.7.258c-.358-.107-.9-.745-3.82-4.558-.545-.71-1.018-1.319-1.046-1.347a2.072,2.072,0,0,0-.731.151,18.064,18.064,0,0,1-8.092.38l-.767-.122-.573,1.612c-.473,1.326-.774,2.243-1.2,3.648-.043.151-.53.315-.788.265a.879.879,0,0,1-.623-.7c-.065-.351-.523-3.748-.724-5.4a22.6,22.6,0,0,0-1.039-4.8l-.143-.323,2.215-1.677,2.214-1.67.344.158c.552.265,2.9.509,7.332.752A24.365,24.365,0,0,1,35-497.05a.859.859,0,0,0,.738-.043,2.013,2.013,0,0,0,1.455-1.605c.043-.208.05-.208.151-.072A1.661,1.661,0,0,1,37.523-498.339Z" transform="translate(-10.009 505.456)" fill="#9a9a9a"/>
        <path id="Path_220" data-name="Path 220" d="M81.921,38.954a1.694,1.694,0,0,0-.688.645c-.129.251-.989,7.54-.925,7.869a2.539,2.539,0,0,0,.179.509c.072.143,1.591,1.749,3.375,3.569l3.246,3.311H95.48l-.043-.308c-.022-.165-.172-1.491-.33-2.953-.323-2.9-.373-3.117-.846-3.562-.537-.508-5.983-4.658-6.3-4.8a1.769,1.769,0,0,0-1.985.236c-.516.616-.358,1.462.509,2.709a2.587,2.587,0,0,1,.294.473,18.113,18.113,0,0,1-1.957-.9c-.122-.1-.122-.265-.072-2.415.057-2.566.029-2.852-.351-3.483a2.233,2.233,0,0,0-1.175-.91A3.181,3.181,0,0,0,81.921,38.954Zm1.054,1a1.235,1.235,0,0,1,.7.81,10.236,10.236,0,0,1,.029,2.681c-.072,2.308-.072,2.315.079,2.637a1.6,1.6,0,0,0,.387.494c.208.158,4.544,2.014,4.594,1.957.007-.014-.172-.5-.409-1.089A5.834,5.834,0,0,0,87.5,45.8a3.332,3.332,0,0,1-.774-1.491c0-.244.28-.315.688-.179.358.129,6.027,4.486,6.243,4.8.136.2.186.53.4,2.523.136,1.261.236,2.315.215,2.343s-1.526.057-3.354.057H87.6l-3.075-3.117c-1.835-1.863-3.1-3.2-3.139-3.333a22.589,22.589,0,0,1,.344-3.777c.229-1.964.452-3.605.494-3.655C82.315,39.857,82.7,39.85,82.974,39.957Z" transform="translate(-77.779 -19.324)" fill="#9a9a9a"/>
        <path id="Path_221" data-name="Path 221" d="M580.232,38.913a2.205,2.205,0,0,0-1.391,1.541,11.694,11.694,0,0,0-.057,2.766c.05,2.193.043,2.379-.072,2.472a18.12,18.12,0,0,1-1.956.9,2.587,2.587,0,0,1,.294-.473c1.025-1.469,1.061-2.494.115-2.988a1.16,1.16,0,0,0-.781-.136,2.64,2.64,0,0,0-.8.179c-.3.129-5.562,4.128-6.242,4.737-.552.5-.581.609-.939,3.842-.186,1.605-.33,2.953-.33,2.981s1.878.065,4.178.065h4.178l3.247-3.318c1.784-1.82,3.3-3.426,3.375-3.562a2.361,2.361,0,0,0,.179-.5c.057-.337-.8-7.633-.932-7.876a1.6,1.6,0,0,0-.7-.645A2.828,2.828,0,0,0,580.232,38.913Zm1.039.989c.1.079.2.767.516,3.5.222,1.871.4,3.548.4,3.72,0,.358.265.072-4.551,4.931l-1.72,1.742h-3.311c-1.82,0-3.326-.029-3.347-.057-.057-.093.452-4.537.545-4.766a69.668,69.668,0,0,1,6.35-4.9c.387-.136.659-.043.659.222a4.042,4.042,0,0,1-.832,1.519,6.239,6.239,0,0,0-.81,1.577,10.168,10.168,0,0,0-.4,1.089c.007.014,1.01-.394,2.229-.9,2.415-1,2.666-1.154,2.824-1.727a18.022,18.022,0,0,0,0-2.559c-.086-2.516-.065-2.752.344-3.139A.984.984,0,0,1,581.272,39.9Z" transform="translate(-548.018 -19.262)" fill="#9a9a9a"/>
      </g>
    </g>
  </g>
</svg>
