<svg xmlns="http://www.w3.org/2000/svg" width="13.577" height="13.577" viewBox="0 0 13.577 13.577">
  <g id="key" transform="translate(-10 -10)">
    <path id="Path_12" data-name="Path 12" d="M19.183,10h.137a4.382,4.382,0,0,1,2.132.614,4.338,4.338,0,0,1,1.992,2.678,4.711,4.711,0,0,1,.133.964v.184a4.5,4.5,0,0,1-.287,1.449,4.341,4.341,0,0,1-5.569,2.525L16.63,19.5h-.384c0,.126,0,.252,0,.378-.233.238-.47.471-.7.706-.127,0-.256,0-.384,0,0,.126,0,.252,0,.38q-.486.49-.978.978h-.652c0,.217,0,.435,0,.652-.324.327-.65.654-.977.977H10.7c-.237-.233-.472-.467-.7-.7V21.021q2.579-2.587,5.163-5.166a4.337,4.337,0,0,1,2.172-5.415A4.377,4.377,0,0,1,19.183,10Zm-.42.575a3.447,3.447,0,0,0-.488.1,3.8,3.8,0,0,0,1.456,7.439,3.736,3.736,0,0,0,1.416-.486,3.8,3.8,0,0,0-2.384-7.048ZM10.658,21.129a.6.6,0,0,0-.112.125c-.007.285,0,.571,0,.856,1.394-1.4,2.8-2.8,4.19-4.195a.318.318,0,0,1,.254-.111.262.262,0,0,1,.242.28.445.445,0,0,1-.177.281q-1.631,1.629-3.261,3.261c-.377.381-.76.754-1.133,1.139.087.08.166.168.252.249.025.028.065.015.1.019.434,0,.866,0,1.3,0,.032,0,.051-.029.073-.047.2-.205.407-.4.608-.611,0-.324,0-.647,0-.971.321,0,.644,0,.966,0,.205-.18.388-.386.587-.576.028-.035.079-.062.076-.111,0-.223,0-.446,0-.668.234,0,.47,0,.7,0,.123-.134.267-.251.38-.392.007-.231,0-.463,0-.694.235,0,.471,0,.706,0,.258-.262.519-.519.779-.78a4.911,4.911,0,0,1-.54-.348A4.421,4.421,0,0,1,15.4,16.39Q13.026,18.759,10.658,21.129ZM17.663,11.8a2.985,2.985,0,0,1,4,4.268,7.194,7.194,0,0,1-.5.586q-2.126-2.117-4.244-4.243A5,5,0,0,1,17.663,11.8Zm.044.633q1.716,1.714,3.431,3.431a2.442,2.442,0,0,0-3.431-3.431Z" fill="#7b7b7b"/>
  </g>
</svg>
