<svg xmlns="http://www.w3.org/2000/svg" width="201.29" height="196.468" viewBox="0 0 201.29 196.468">
  <g id="_6325249-ai" data-name="6325249-ai" transform="translate(-26.096 -35.997)">
    <g id="Background_Simple" data-name="Background Simple" transform="translate(26.096 35.997)">
      <g id="_Group_" data-name="&lt;Group&gt;" transform="translate(0 0)">
        <path id="_Path_" data-name="&lt;Path&gt;" d="M224.673,152.976c-5.748,17.413-18.116,36.487-36.338,42.7-27.525,9.388-29.973,31.974-79.936,31.8a100.709,100.709,0,0,1-21.692-2.32,87.227,87.227,0,0,1-10.261-2.98c-29.59-10.665-45.79-36.062-48.11-63.182C25.291,123.322,49.581,105.334,65.4,94.733s33.869-50.005,82.958-50.239a96.844,96.844,0,0,1,22.288,2.363c16.69,3.832,33.848,13.071,44.151,27.121q1.15,1.6,2.214,3.257C230.91,98.862,232.507,129.24,224.673,152.976Z" transform="translate(-28.075 -44.492)" fill="#8baeb0"/>
        <path id="_Path_2" data-name="&lt;Path&gt;" d="M224.673,152.976c-5.748,17.413-18.116,36.487-36.338,42.7-27.525,9.388-29.973,31.974-79.936,31.8a100.709,100.709,0,0,1-21.692-2.32,87.227,87.227,0,0,1-10.261-2.98c-29.59-10.665-45.79-36.062-48.11-63.182C25.291,123.322,49.581,105.334,65.4,94.733s33.869-50.005,82.958-50.239a96.844,96.844,0,0,1,22.288,2.363c16.69,3.832,33.848,13.071,44.151,27.121q1.15,1.6,2.214,3.257C230.91,98.862,232.507,129.24,224.673,152.976Z" transform="translate(-28.075 -44.492)" fill="#fff" opacity="0.7"/>
      </g>
    </g>
    <g id="Device" transform="translate(27.719 41.513)">
      <path id="_Path_3" data-name="&lt;Path&gt;" d="M233.527,947.1H35.7" transform="translate(-35.7 -760.47)" fill="none" stroke="#263238" stroke-linecap="round" stroke-linejoin="round" stroke-width="2"/>
      <g id="_Group_2" data-name="&lt;Group&gt;" transform="translate(10.532)">
        <g id="_Group_3" data-name="&lt;Group&gt;" transform="translate(3.619 2.64)">
          <path id="_Path_4" data-name="&lt;Path&gt;" d="M320.864,90.059V236.37a7.273,7.273,0,0,1-7.28,7.259H250.359a7.268,7.268,0,0,1-7.259-7.259V90.059a7.254,7.254,0,0,1,7.259-7.259H277.5l.021.064c.681,2.448,2.235,4.023,3.96,4.023h.979c1.746,0,3.3-1.575,3.96-4.023l.043-.064h27.121a7.259,7.259,0,0,1,7.28,7.259Z" transform="translate(-243.1 -82.8)" fill="#fff" stroke="#263238" stroke-width="2"/>
        </g>
        <g id="_Group_4" data-name="&lt;Group&gt;" transform="translate(29.824 98.201)">
          <path id="_Path_5" data-name="&lt;Path&gt;" d="M390.809,540H368.265a2.049,2.049,0,0,1-2.065-2.044v-4.194a2.053,2.053,0,0,1,2.065-2.065h22.544a2.067,2.067,0,0,1,2.065,2.065v4.194A2.062,2.062,0,0,1,390.809,540Z" transform="translate(-366.2 -531.7)" fill="#263238" stroke="#263238" stroke-linecap="round" stroke-linejoin="round" stroke-width="2"/>
        </g>
        <g id="_Group_5" data-name="&lt;Group&gt;" transform="translate(3.619 117.956)">
          <path id="_Path_6" data-name="&lt;Path&gt;" d="M320.864,624.5v38.254a7.273,7.273,0,0,1-7.28,7.259H250.359a7.268,7.268,0,0,1-7.259-7.259V624.5Z" transform="translate(-243.1 -624.5)" fill="#dbdbdb" stroke="#263238" stroke-linecap="round" stroke-linejoin="round" stroke-width="2"/>
        </g>
        <g id="_Group_6" data-name="&lt;Group&gt;" transform="translate(6.94 122.575)">
          <path id="_Path_7" data-name="&lt;Path&gt;" d="M279.051,653.374H259.679a.99.99,0,0,1-.979-.979v-5.215a.977.977,0,0,1,.979-.979h19.372a.977.977,0,0,1,.979.979v5.215A.99.99,0,0,1,279.051,653.374Z" transform="translate(-258.7 -646.2)" fill="#fff"/>
          <path id="_Path_8" data-name="&lt;Path&gt;" d="M391.151,653.374H371.758a.972.972,0,0,1-.958-.979v-5.215a.959.959,0,0,1,.958-.979h19.393a.959.959,0,0,1,.958.979v5.215A.972.972,0,0,1,391.151,653.374Z" transform="translate(-346.936 -646.2)" fill="#fff"/>
          <path id="_Path_9" data-name="&lt;Path&gt;" d="M503.251,653.374H483.858a.972.972,0,0,1-.958-.979v-5.215a.959.959,0,0,1,.958-.979h19.393a.959.959,0,0,1,.958.979v5.215A.972.972,0,0,1,503.251,653.374Z" transform="translate(-435.173 -646.2)" fill="#fff"/>
          <path id="_Path_10" data-name="&lt;Path&gt;" d="M279.051,696.353H259.679a.972.972,0,0,1-.979-.958v-5.237a.972.972,0,0,1,.979-.958h19.372a.972.972,0,0,1,.979.958v5.237A.972.972,0,0,1,279.051,696.353Z" transform="translate(-258.7 -680.046)" fill="#fff"/>
          <path id="_Path_11" data-name="&lt;Path&gt;" d="M391.151,696.353H371.758a.954.954,0,0,1-.958-.958v-5.237a.954.954,0,0,1,.958-.958h19.393a.954.954,0,0,1,.958.958v5.237A.954.954,0,0,1,391.151,696.353Z" transform="translate(-346.936 -680.046)" fill="#fff"/>
          <path id="_Path_12" data-name="&lt;Path&gt;" d="M503.251,696.353H483.858a.954.954,0,0,1-.958-.958v-5.237a.954.954,0,0,1,.958-.958h19.393a.954.954,0,0,1,.958.958v5.237A.954.954,0,0,1,503.251,696.353Z" transform="translate(-435.173 -680.046)" fill="#fff"/>
          <path id="_Path_13" data-name="&lt;Path&gt;" d="M279.051,739.353H259.679a.972.972,0,0,1-.979-.958v-5.237a.972.972,0,0,1,.979-.958h19.372a.972.972,0,0,1,.979.958v5.237A.972.972,0,0,1,279.051,739.353Z" transform="translate(-258.7 -713.893)" fill="#fff"/>
          <path id="_Path_14" data-name="&lt;Path&gt;" d="M391.151,739.353H371.758a.954.954,0,0,1-.958-.958v-5.237a.954.954,0,0,1,.958-.958h19.393a.954.954,0,0,1,.958.958v5.237A.954.954,0,0,1,391.151,739.353Z" transform="translate(-346.936 -713.893)" fill="#fff"/>
          <path id="_Path_15" data-name="&lt;Path&gt;" d="M503.251,739.353H483.858a.954.954,0,0,1-.958-.958v-5.237a.954.954,0,0,1,.958-.958h19.393a.954.954,0,0,1,.958.958v5.237A.954.954,0,0,1,503.251,739.353Z" transform="translate(-435.173 -713.893)" fill="#fff"/>
          <path id="_Path_16" data-name="&lt;Path&gt;" d="M391.151,782.353H371.758a.954.954,0,0,1-.958-.958v-5.237a.954.954,0,0,1,.958-.958h19.393a.954.954,0,0,1,.958.958v5.237A.954.954,0,0,1,391.151,782.353Z" transform="translate(-346.936 -747.739)" fill="#fff"/>
          <path id="_Path_17" data-name="&lt;Path&gt;" d="M511.157,782.353h-13.3L495,779.032l2.853-3.832h13.3Z" transform="translate(-444.697 -747.739)" fill="#fff"/>
        </g>
        <g id="_Group_7" data-name="&lt;Group&gt;" transform="translate(28.739 35.614)">
          <g id="_Group_8" data-name="&lt;Group&gt;">
            <path id="_Path_18" data-name="&lt;Path&gt;" d="M389.924,245.534s-2.107,11.921-3.64,17.307c-1.533,5.365-7.493,8.26-10.772,10.176-3.257-1.916-9.218-4.811-10.75-10.176-1.554-5.386-3.661-17.307-3.661-17.307,4.428-2.107,14.22-7.685,14.22-7.685l.192-.149.192.149S385.517,243.426,389.924,245.534Z" transform="translate(-361.1 -237.7)" fill="#3d6161"/>
          </g>
          <g id="_Group_9" data-name="&lt;Group&gt;" transform="translate(6.39 10.189)">
            <path id="_Path_19" data-name="&lt;Path&gt;" d="M398.138,298.557,391.645,293a1.5,1.5,0,1,1,1.937-2.278l4.258,3.661,7.3-8.324a1.479,1.479,0,0,1,2.086-.128,1.508,1.508,0,0,1,.149,2.108Z" transform="translate(-391.117 -285.564)" fill="#fff"/>
          </g>
        </g>
        <g id="_Group_10" data-name="&lt;Group&gt;" transform="translate(8.941 77.594)">
          <path id="_Path_20" data-name="&lt;Path&gt;" d="M276.956,443.734H268.1V434.9h8.856Z" transform="translate(-268.1 -434.9)" fill="#fff" stroke="#263238" stroke-width="1"/>
          <path id="_Path_21" data-name="&lt;Path&gt;" d="M332.934,443.734H324.1V434.9h8.834Z" transform="translate(-312.179 -434.9)" fill="#fff" stroke="#263238" stroke-width="1"/>
          <path id="_Path_22" data-name="&lt;Path&gt;" d="M388.934,443.734H380.1V434.9h8.834Z" transform="translate(-356.258 -434.9)" fill="#fff" stroke="#263238" stroke-width="1"/>
          <path id="_Path_23" data-name="&lt;Path&gt;" d="M444.856,443.734H436V434.9h8.856Z" transform="translate(-400.258 -434.9)" fill="#fff" stroke="#263238" stroke-width="1"/>
          <path id="_Path_24" data-name="&lt;Path&gt;" d="M500.834,443.734H492V434.9h8.834Z" transform="translate(-444.337 -434.9)" fill="#fff" stroke="#263238" stroke-width="1"/>
          <path id="_Path_25" data-name="&lt;Path&gt;" d="M556.834,443.734H548V434.9h8.834Z" transform="translate(-488.415 -434.9)" fill="#fff" stroke="#263238" stroke-width="1"/>
        </g>
        <g id="_Group_11" data-name="&lt;Group&gt;" transform="translate(3.619 2.64)">
          <path id="_Path_26" data-name="&lt;Path&gt;" d="M243.1,96.871V90.059a7.254,7.254,0,0,1,7.259-7.259H277.5l.021.064c.681,2.448,2.235,4.023,3.96,4.023h.979c1.746,0,3.3-1.575,3.96-4.023l.043-.064h27.121a7.259,7.259,0,0,1,7.28,7.259v6.812Z" transform="translate(-243.1 -82.8)" fill="#dbdbdb" stroke="#263238" stroke-linecap="round" stroke-linejoin="round" stroke-width="2"/>
        </g>
        <g id="_Group_12" data-name="&lt;Group&gt;">
          <path id="_Compound_Path_" data-name="&lt;Compound Path&gt;" d="M311.1,115.253v3.811h1.32v8.643H311.1V230.569a11.534,11.534,0,0,1-11.538,11.538H237.617A11.515,11.515,0,0,1,226.1,230.569V81.917A11.511,11.511,0,0,1,237.617,70.4h61.947A11.529,11.529,0,0,1,311.1,81.917v18.712h1.32v14.625Zm-3.619-30.7A11.529,11.529,0,0,0,295.945,73.04H273.082l-.021.064c-.681,2.448-2.235,4.023-3.96,4.023h-1c-1.724,0-3.278-1.575-3.96-4.023l-.021-.064H241.257a11.529,11.529,0,0,0-11.538,11.517V222.331a11.534,11.534,0,0,0,11.538,11.538h54.688a11.534,11.534,0,0,0,11.538-11.538Z" transform="translate(-226.1 -70.4)" fill="#92e3a9" stroke="#263238" stroke-linecap="round" stroke-linejoin="round" stroke-width="2" fill-rule="evenodd"/>
          <path id="_Compound_Path_2" data-name="&lt;Compound Path&gt;" d="M314.641,88.934v146.29a11.107,11.107,0,0,1-11.112,11.112h-60.1A11.111,11.111,0,0,1,232.3,235.223V88.934A11.129,11.129,0,0,1,243.433,77.8h60.1a11.125,11.125,0,0,1,11.112,11.134Zm-2.278,1.043A11.111,11.111,0,0,0,301.23,78.864H277.962l-.043.064c-.66,2.448-2.214,4.023-3.96,4.023h-.979c-1.724,0-3.278-1.575-3.96-4.023L269,78.864H245.711A11.107,11.107,0,0,0,234.6,89.977v138.6a11.12,11.12,0,0,0,11.112,11.112H301.23a11.125,11.125,0,0,0,11.134-11.112Z" transform="translate(-230.98 -76.225)" fill="#263238" stroke="#263238" stroke-linecap="round" stroke-linejoin="round" stroke-width="2" fill-rule="evenodd"/>
          <path id="_Path_27" data-name="&lt;Path&gt;" d="M420.586,82.45a1.075,1.075,0,1,1,1.086-1.086A1.077,1.077,0,0,1,420.586,82.45Z" transform="translate(-378.329 -78.193)" fill="#fff"/>
          <g id="_Group_13" data-name="&lt;Group&gt;" transform="translate(8.898 5.961)">
            <g id="_Group_14" data-name="&lt;Group&gt;" transform="translate(0 0.447)">
              <path id="_Compound_Path_3" data-name="&lt;Compound Path&gt;" d="M269.539,101.415c0,1.107-1.235,1.49-1.256,2.342v.043H269.5v.383h-1.6v-.319c0-1.171,1.235-1.4,1.235-2.427,0-.362-.128-.575-.426-.575s-.426.213-.426.532v.319H267.9v-.277c0-.575.255-.937.809-.937C269.284,100.5,269.539,100.862,269.539,101.415Z" transform="translate(-267.9 -100.5)" fill="#263238"/>
              <path id="_Compound_Path_4" data-name="&lt;Compound Path&gt;" d="M278.839,101.415v.085a.75.75,0,0,1-.447.766.7.7,0,0,1,.447.745v.277c0,.553-.255.915-.83.915-.553,0-.809-.362-.809-.915v-.255h.383v.277c0,.341.128.532.426.532s.426-.192.426-.553v-.3c0-.341-.149-.511-.468-.532h-.213V102.1h.234a.427.427,0,0,0,.447-.49v-.17c0-.383-.128-.575-.426-.575s-.426.213-.426.532v.192H277.2v-.17c0-.553.255-.915.809-.915C278.584,100.5,278.839,100.862,278.839,101.415Z" transform="translate(-275.22 -100.5)" fill="#263238"/>
              <path id="_Compound_Path_5" data-name="&lt;Compound Path&gt;" d="M287.1,106.1v.511h-.4V106.1Zm0,1.98v.511h-.383v-.511Z" transform="translate(-282.698 -104.908)" fill="#263238"/>
              <path id="_Compound_Path_6" data-name="&lt;Compound Path&gt;" d="M290.9,102.169a.589.589,0,0,1,.553-.3c.468,0,.66.341.66.873v.7c0,.553-.255.915-.809.915s-.809-.362-.809-.915v-.234h.362v.255c0,.341.149.532.426.532.3,0,.426-.192.426-.532v-.7c0-.319-.128-.511-.426-.511-.213,0-.362.106-.4.383v.085H290.5l.106-2.022h1.426v.362h-1.064Z" transform="translate(-285.689 -100.657)" fill="#263238"/>
              <path id="_Compound_Path_7" data-name="&lt;Compound Path&gt;" d="M301.46,101.415v.064h-.383v-.085c0-.341-.128-.532-.426-.532s-.447.213-.447.6v.809a.585.585,0,0,1,.6-.383c.468,0,.681.341.681.852v.553c0,.553-.277.915-.83.915a.8.8,0,0,1-.852-.915v-1.852c0-.575.277-.937.852-.937C301.205,100.5,301.46,100.862,301.46,101.415Zm-1.256,1.362v.532c0,.341.149.532.447.532.277,0,.426-.192.426-.532v-.532c0-.341-.149-.532-.426-.532C300.353,102.246,300.2,102.437,300.2,102.778Z" transform="translate(-293.009 -100.5)" fill="#263238" fill-rule="evenodd"/>
            </g>
            <g id="_Group_15" data-name="&lt;Group&gt;" transform="translate(47.089)">
              <path id="_Path_28" data-name="&lt;Path&gt;" d="M490.143,108.076H489.1V105.5h1.043Z" transform="translate(-489.1 -103.989)" fill="#263238"/>
              <path id="_Path_29" data-name="&lt;Path&gt;" d="M496.622,106.187H495.6V103.1h1.022Z" transform="translate(-494.216 -102.099)" fill="#263238"/>
              <path id="_Path_30" data-name="&lt;Path&gt;" d="M503.022,104.849H502V101.4h1.022Z" transform="translate(-499.254 -100.761)" fill="#263238"/>
              <path id="_Path_31" data-name="&lt;Path&gt;" d="M509.422,102.487H508.4V98.4h1.022Z" transform="translate(-504.291 -98.4)" fill="#263238"/>
              <g id="_Group_16" data-name="&lt;Group&gt;" transform="translate(11.687 0.255)">
                <g id="_Group_17" data-name="&lt;Group&gt;">
                  <path id="_Compound_Path_8" data-name="&lt;Compound Path&gt;" d="M550.152,103.368H544V99.6h6.152Zm-5.812-.341h5.471V99.941h-5.471Z" transform="translate(-544 -99.6)" fill="#263238" fill-rule="evenodd"/>
                </g>
                <g id="_Group_18" data-name="&lt;Group&gt;" transform="translate(0.852 0.702)">
                  <path id="_Path_32" data-name="&lt;Path&gt;" d="M551.236,105.242H548V102.9h3.236Z" transform="translate(-548 -102.9)" fill="#263238"/>
                </g>
                <g id="_Group_19" data-name="&lt;Group&gt;" transform="translate(5.939 1.426)">
                  <path id="_Path_33" data-name="&lt;Path&gt;" d="M572.666,107.194H571.9V106.3h.766Z" transform="translate(-571.9 -106.3)" fill="#263238"/>
                </g>
              </g>
              <g id="_Group_20" data-name="&lt;Group&gt;" transform="translate(6.809 2.357)">
                <path id="_Path_34" data-name="&lt;Path&gt;" d="M523.708,110.307a.4.4,0,0,1-.128-.021,1.8,1.8,0,0,0-2.107-.043.238.238,0,0,1-.341-.021.257.257,0,0,1,.021-.319,2.25,2.25,0,0,1,2.661-.021.24.24,0,0,1,.085.319A.254.254,0,0,1,523.708,110.307Z" transform="translate(-521.086 -109.47)" fill="#263238"/>
              </g>
              <g id="_Group_21" data-name="&lt;Group&gt;" transform="translate(6.346 1.444)">
                <path id="_Path_35" data-name="&lt;Path&gt;" d="M522.443,106.165a.144.144,0,0,1-.106-.043,2.635,2.635,0,0,0-3.044-.021.226.226,0,1,1-.3-.341,3.011,3.011,0,0,1,3.576-.021.235.235,0,0,1,.085.319.262.262,0,0,1-.213.106Z" transform="translate(-518.911 -105.181)" fill="#263238"/>
              </g>
              <g id="_Group_22" data-name="&lt;Group&gt;" transform="translate(5.92 0.417)">
                <path id="_Path_36" data-name="&lt;Path&gt;" d="M521.294,101.475a.145.145,0,0,1-.107-.043,3.285,3.285,0,0,0-3.9-.021.226.226,0,1,1-.3-.341,3.761,3.761,0,0,1,4.428-.021.209.209,0,0,1,.064.3.2.2,0,0,1-.192.128Z" transform="translate(-516.911 -100.359)" fill="#263238"/>
              </g>
              <g id="_Group_23" data-name="&lt;Group&gt;" transform="translate(7.578 3.002)">
                <path id="_Path_37" data-name="&lt;Path&gt;" d="M525.849,113.075a.575.575,0,1,1-.575-.575A.572.572,0,0,1,525.849,113.075Z" transform="translate(-524.7 -112.5)" fill="#263238"/>
              </g>
            </g>
          </g>
        </g>
      </g>
    </g>
    <g id="Text" transform="translate(53.621 67.25)">
      <g id="_Group_24" data-name="&lt;Group&gt;" transform="translate(0 97.647)">
        <path id="_Path_38" data-name="&lt;Path&gt;" d="M529.552,783.137a.642.642,0,0,1,0,.915.649.649,0,0,1-.447.192.661.661,0,0,1-.468-.192l-2.065-2.086-2.065,2.086a.661.661,0,0,1-.468.192.649.649,0,0,1-.447-.192.642.642,0,0,1,0-.915l2.086-2.065-2.086-2.065a.647.647,0,0,1,.915-.915l2.065,2.086,2.065-2.086a.647.647,0,0,1,.915.915l-2.086,2.065Z" transform="translate(-475.481 -750.673)" fill="#263238"/>
        <g id="_Group_25" data-name="&lt;Group&gt;" transform="translate(0.319 0.064)">
          <path id="_Compound_Path_9" data-name="&lt;Compound Path&gt;" d="M300.609,655.473v-4.194a.488.488,0,0,0-.149.043l-.255.085a1.684,1.684,0,0,0-.255.064.656.656,0,0,0-.149.043v-.66a1.674,1.674,0,0,0,.234-.085q.128-.064.277-.128a1.121,1.121,0,0,0,.277-.17,1.394,1.394,0,0,0,.213-.17h.681v5.173Z" transform="translate(-299.8 -650.3)" fill="#263238"/>
        </g>
        <g id="_Group_26" data-name="&lt;Group&gt;" transform="translate(24.971)">
          <path id="_Compound_Path_10" data-name="&lt;Compound Path&gt;" d="M415.6,655.237V654.6l1.277-1.958q.149-.234.255-.426a2.2,2.2,0,0,0,.213-.4,1.251,1.251,0,0,0,.085-.468.77.77,0,0,0-.106-.447.367.367,0,0,0-.319-.149.434.434,0,0,0-.319.106.74.74,0,0,0-.149.3,1.864,1.864,0,0,0-.043.4v.234h-.873v-.234a2.305,2.305,0,0,1,.128-.809,1.315,1.315,0,0,1,.447-.553,1.439,1.439,0,0,1,.788-.192,1.309,1.309,0,0,1,1,.362,1.461,1.461,0,0,1,.319,1,1.812,1.812,0,0,1-.085.575,2.213,2.213,0,0,1-.234.49q-.149.234-.319.49l-1.064,1.6h1.575v.724Z" transform="translate(-415.6 -650)" fill="#263238"/>
        </g>
        <g id="_Group_27" data-name="&lt;Group&gt;" transform="translate(48.536 0)">
          <path id="_Compound_Path_11" data-name="&lt;Compound Path&gt;" d="M527.641,655.3a1.532,1.532,0,0,1-.766-.17,1.176,1.176,0,0,1-.447-.532,2.064,2.064,0,0,1-.128-.766v-.192h.873v.149q.021.255.043.426a.456.456,0,0,0,.149.255.47.47,0,0,0,.6,0,.559.559,0,0,0,.128-.277,2.078,2.078,0,0,0,.043-.447,1.214,1.214,0,0,0-.128-.617.546.546,0,0,0-.49-.255h-.149v-.7h.149a.522.522,0,0,0,.468-.192.873.873,0,0,0,.149-.575.979.979,0,0,0-.106-.511.4.4,0,0,0-.383-.192.348.348,0,0,0-.362.213,1.531,1.531,0,0,0-.106.511v.192H526.3v-.234a1.66,1.66,0,0,1,.149-.745,1.2,1.2,0,0,1,.468-.49,1.6,1.6,0,0,1,.724-.149,1.659,1.659,0,0,1,.745.149,1.094,1.094,0,0,1,.447.468,1.484,1.484,0,0,1,.17.745,1.352,1.352,0,0,1-.192.745.856.856,0,0,1-.49.383.777.777,0,0,1,.341.234.9.9,0,0,1,.255.4,1.965,1.965,0,0,1,.085.617,2.419,2.419,0,0,1-.128.809,1.162,1.162,0,0,1-.447.553,1.374,1.374,0,0,1-.788.192Z" transform="translate(-526.3 -650)" fill="#263238"/>
        </g>
        <g id="_Group_28" data-name="&lt;Group&gt;" transform="translate(0 9.218)">
          <path id="_Compound_Path_12" data-name="&lt;Compound Path&gt;" d="M299.854,698.473v-1.256H298.3v-.766l1.341-3.151h1.043v3.214h.532v.7h-.532v1.256Zm-.809-1.958h.809v-2.256Z" transform="translate(-298.3 -693.3)" fill="#263238" fill-rule="evenodd"/>
        </g>
        <g id="_Group_29" data-name="&lt;Group&gt;" transform="translate(25.013 9.218)">
          <path id="_Compound_Path_13" data-name="&lt;Compound Path&gt;" d="M417.1,698.558a1.483,1.483,0,0,1-.809-.192.983.983,0,0,1-.383-.532,2.948,2.948,0,0,1-.106-.83h.852a2.392,2.392,0,0,0,.043.468.592.592,0,0,0,.149.3.293.293,0,0,0,.3.106.335.335,0,0,0,.319-.149.824.824,0,0,0,.106-.383,4.081,4.081,0,0,0,.043-.617,2.644,2.644,0,0,0-.043-.511.971.971,0,0,0-.128-.362.392.392,0,0,0-.319-.128.433.433,0,0,0-.319.128.647.647,0,0,0-.17.341h-.766l.043-2.9h2.342v.809h-1.6l-.043,1.235a.726.726,0,0,1,.277-.192,1.27,1.27,0,0,1,.4-.064.981.981,0,0,1,.66.17,1.145,1.145,0,0,1,.383.554,2.634,2.634,0,0,1,.128.873,4.053,4.053,0,0,1-.064.745,1.552,1.552,0,0,1-.192.6.932.932,0,0,1-.426.383A1.347,1.347,0,0,1,417.1,698.558Z" transform="translate(-415.8 -693.3)" fill="#263238"/>
        </g>
        <g id="_Group_30" data-name="&lt;Group&gt;" transform="translate(48.557 9.175)">
          <path id="_Compound_Path_14" data-name="&lt;Compound Path&gt;" d="M527.762,698.4a1.239,1.239,0,0,1-.788-.234,1.157,1.157,0,0,1-.426-.6,2.5,2.5,0,0,1-.149-.873v-1.809a3.034,3.034,0,0,1,.128-.915,1.16,1.16,0,0,1,.4-.639,1.275,1.275,0,0,1,.809-.234,1.578,1.578,0,0,1,.745.149,1.026,1.026,0,0,1,.426.426,1.836,1.836,0,0,1,.128.724v.085h-.852a1.628,1.628,0,0,0-.064-.532.364.364,0,0,0-.362-.17.375.375,0,0,0-.277.106.635.635,0,0,0-.149.341,3.587,3.587,0,0,0-.043.617v.617a.573.573,0,0,1,.277-.234.948.948,0,0,1,.426-.085,1.071,1.071,0,0,1,.66.192,1.083,1.083,0,0,1,.341.532,2.563,2.563,0,0,1,.106.766,2.83,2.83,0,0,1-.128.894,1.276,1.276,0,0,1-.426.639,1.239,1.239,0,0,1-.788.234Zm0-.681a.308.308,0,0,0,.277-.128.611.611,0,0,0,.149-.319,4.351,4.351,0,0,0,.021-.468q0-.277-.021-.511a.743.743,0,0,0-.107-.341.392.392,0,0,0-.319-.128,1.081,1.081,0,0,0-.213.021.568.568,0,0,0-.149.106.848.848,0,0,0-.106.128v.83a1.583,1.583,0,0,0,.043.383.592.592,0,0,0,.149.3A.343.343,0,0,0,527.762,697.719Z" transform="translate(-526.4 -693.1)" fill="#263238" fill-rule="evenodd"/>
        </g>
        <g id="_Group_31" data-name="&lt;Group&gt;" transform="translate(0.213 18.393)">
          <path id="_Compound_Path_15" data-name="&lt;Compound Path&gt;" d="M299.683,741.573l1.022-4.492h-1.4V736.4h2.278v.553l-1.043,4.619Z" transform="translate(-299.3 -736.4)" fill="#263238"/>
        </g>
        <g id="_Group_32" data-name="&lt;Group&gt;" transform="translate(24.949 18.329)">
          <path id="_Compound_Path_16" data-name="&lt;Compound Path&gt;" d="M416.841,741.4a1.439,1.439,0,0,1-.788-.192,1.051,1.051,0,0,1-.426-.554,2.3,2.3,0,0,1-.128-.809,1.967,1.967,0,0,1,.043-.426,1.212,1.212,0,0,1,.128-.341.675.675,0,0,1,.192-.255.931.931,0,0,1,.255-.213,1.12,1.12,0,0,1-.383-.426,1.65,1.65,0,0,1-.17-.7,1.745,1.745,0,0,1,.149-.745.971.971,0,0,1,.426-.468,1.321,1.321,0,0,1,.7-.17,1.366,1.366,0,0,1,.724.17,1,1,0,0,1,.4.468,1.746,1.746,0,0,1,.149.745,1.65,1.65,0,0,1-.17.7,1.119,1.119,0,0,1-.383.426,1.314,1.314,0,0,1,.277.213,1.2,1.2,0,0,1,.192.255,1.213,1.213,0,0,1,.128.341,1.969,1.969,0,0,1,.043.426,2.3,2.3,0,0,1-.128.809,1.051,1.051,0,0,1-.426.554A1.484,1.484,0,0,1,416.841,741.4Zm0-.66a.392.392,0,0,0,.319-.128.74.74,0,0,0,.149-.319,3.666,3.666,0,0,0,.021-.4q0-.213-.021-.426a.741.741,0,0,0-.149-.319.392.392,0,0,0-.319-.128.367.367,0,0,0-.3.128.741.741,0,0,0-.149.319,2.166,2.166,0,0,0-.043.426,1.86,1.86,0,0,0,.043.4.518.518,0,0,0,.149.319A.367.367,0,0,0,416.841,740.741Zm0-2.469a.307.307,0,0,0,.255-.106.725.725,0,0,0,.128-.3,1.967,1.967,0,0,0,.043-.426,1.062,1.062,0,0,0-.085-.468.361.361,0,0,0-.341-.192.344.344,0,0,0-.319.192.881.881,0,0,0-.106.468,1.967,1.967,0,0,0,.043.426.726.726,0,0,0,.128.3A.348.348,0,0,0,416.841,738.271Z" transform="translate(-415.5 -736.1)" fill="#263238" fill-rule="evenodd"/>
        </g>
        <g id="_Group_33" data-name="&lt;Group&gt;" transform="translate(24.949 27.312)">
          <path id="_Compound_Path_17" data-name="&lt;Compound Path&gt;" d="M416.841,783.622a1.352,1.352,0,0,1-.745-.192,1.177,1.177,0,0,1-.447-.532,1.95,1.95,0,0,1-.149-.788v-2.3a1.95,1.95,0,0,1,.149-.788,1.056,1.056,0,0,1,.426-.532,1.629,1.629,0,0,1,1.533,0,1.177,1.177,0,0,1,.447.532,1.95,1.95,0,0,1,.149.788v2.3a1.739,1.739,0,0,1-.17.788,1.177,1.177,0,0,1-.447.532A1.288,1.288,0,0,1,416.841,783.622Zm0-.766a.331.331,0,0,0,.3-.128.482.482,0,0,0,.128-.3,1.32,1.32,0,0,0,.043-.319v-2.278a1.672,1.672,0,0,0-.043-.362.564.564,0,0,0-.128-.3.362.362,0,0,0-.3-.106.4.4,0,0,0-.3.106.945.945,0,0,0-.128.3,3.287,3.287,0,0,0-.021.362v2.278a1.32,1.32,0,0,0,.043.319.482.482,0,0,0,.128.3A.308.308,0,0,0,416.841,782.855Z" transform="translate(-415.5 -778.3)" fill="#263238" fill-rule="evenodd"/>
        </g>
        <g id="_Group_34" data-name="&lt;Group&gt;" transform="translate(48.472 18.329)">
          <path id="_Compound_Path_18" data-name="&lt;Compound Path&gt;" d="M527.363,741.4a1.658,1.658,0,0,1-.745-.149,1,1,0,0,1-.426-.447,1.774,1.774,0,0,1-.128-.7v-.085h.852a1.251,1.251,0,0,0,.085.532.364.364,0,0,0,.362.17.307.307,0,0,0,.255-.106.635.635,0,0,0,.149-.341,3.587,3.587,0,0,0,.043-.617v-.617a.586.586,0,0,1-.255.234,1.091,1.091,0,0,1-.447.085,1.071,1.071,0,0,1-.66-.192,1.223,1.223,0,0,1-.341-.554,2.643,2.643,0,0,1-.106-.788,2.829,2.829,0,0,1,.128-.894,1.279,1.279,0,0,1,.447-.6,1.239,1.239,0,0,1,.788-.234,1.2,1.2,0,0,1,.766.234,1.293,1.293,0,0,1,.447.575,2.755,2.755,0,0,1,.128.873v1.831a3.6,3.6,0,0,1-.106.915,1.275,1.275,0,0,1-.426.639A1.222,1.222,0,0,1,527.363,741.4Zm0-2.725a.43.43,0,0,0,.277-.085.722.722,0,0,0,.17-.192v-.809a1.857,1.857,0,0,0-.043-.4.459.459,0,0,0-.128-.277.343.343,0,0,0-.277-.128.308.308,0,0,0-.277.128.611.611,0,0,0-.149.319,2.2,2.2,0,0,0-.043.468q0,.277.021.511a.614.614,0,0,0,.128.341A.357.357,0,0,0,527.363,738.676Z" transform="translate(-526 -736.1)" fill="#263238" fill-rule="evenodd"/>
        </g>
      </g>
      <g id="_Group_35" data-name="&lt;Group&gt;" transform="translate(20.458 73.932)">
        <path id="_Compound_Path_19" data-name="&lt;Compound Path&gt;" d="M394.4,543.773V538.6h2.171v.66h-1.213v1.49h.958v.66h-.958v1.7h1.235v.66Z" transform="translate(-394.4 -538.6)" fill="#92e3a9"/>
        <path id="_Compound_Path_20" data-name="&lt;Compound Path&gt;" d="M407.3,543.773V538.6h.66l1.256,2.938V538.6h.766v5.173h-.617l-1.277-3.087v3.087Z" transform="translate(-404.554 -538.6)" fill="#92e3a9"/>
        <path id="_Compound_Path_21" data-name="&lt;Compound Path&gt;" d="M423.009,543.773v-4.492H422.2V538.6h2.576v.681h-.809v4.492Z" transform="translate(-416.282 -538.6)" fill="#92e3a9"/>
        <path id="_Compound_Path_22" data-name="&lt;Compound Path&gt;" d="M436.5,543.773V538.6h2.171v.66h-1.213v1.49h.958v.66h-.958v1.7h1.235v.66Z" transform="translate(-427.538 -538.6)" fill="#92e3a9"/>
        <path id="_Compound_Path_23" data-name="&lt;Compound Path&gt;" d="M449.4,543.773V538.6h1.235a2.633,2.633,0,0,1,.873.128.929.929,0,0,1,.553.426,1.483,1.483,0,0,1,.192.809,2.119,2.119,0,0,1-.064.553.841.841,0,0,1-.192.426.712.712,0,0,1-.383.277l.724,2.555H451.4l-.639-2.384h-.426v2.384Zm.937-2.959h.3a1,1,0,0,0,.447-.085.586.586,0,0,0,.234-.255,1.3,1.3,0,0,0,.064-.447.969.969,0,0,0-.149-.6.638.638,0,0,0-.532-.192h-.362Z" transform="translate(-437.692 -538.6)" fill="#92e3a9" fill-rule="evenodd"/>
      </g>
      <g id="_Group_36" data-name="&lt;Group&gt;" transform="translate(6.791)">
        <path id="_Compound_Path_24" data-name="&lt;Compound Path&gt;" d="M331.115,195.992,330.2,191.5h.724l.6,3.172.553-3.172h.745l-.894,4.492Z" transform="translate(-330.2 -191.457)" fill="#263238"/>
        <path id="_Compound_Path_25" data-name="&lt;Compound Path&gt;" d="M344.7,195.992V191.5h1.873v.575h-1.064v1.3h.83v.553h-.83v1.49h1.086v.575Z" transform="translate(-341.613 -191.457)" fill="#263238"/>
        <path id="_Compound_Path_26" data-name="&lt;Compound Path&gt;" d="M355.8,195.992V191.5h1.064a2.316,2.316,0,0,1,.766.106.915.915,0,0,1,.49.362,1.524,1.524,0,0,1,.149.724,2.734,2.734,0,0,1-.043.49.78.78,0,0,1-.17.362.7.7,0,0,1-.319.234l.617,2.214h-.809l-.553-2.065h-.383v2.065Zm.83-2.576h.255a.981.981,0,0,0,.383-.064.4.4,0,0,0,.192-.234.982.982,0,0,0,.064-.383.847.847,0,0,0-.128-.511.553.553,0,0,0-.468-.17h-.3Z" transform="translate(-350.35 -191.457)" fill="#263238" fill-rule="evenodd"/>
        <path id="_Compound_Path_27" data-name="&lt;Compound Path&gt;" d="M370.4,195.992V191.5h.809v4.492Z" transform="translate(-361.842 -191.457)" fill="#263238"/>
        <path id="_Compound_Path_28" data-name="&lt;Compound Path&gt;" d="M377.5,195.992V191.5h1.831v.575h-1.022v1.3h.83v.575h-.83v2.044Z" transform="translate(-367.431 -191.457)" fill="#263238"/>
        <path id="_Compound_Path_29" data-name="&lt;Compound Path&gt;" d="M388.2,195.992V191.5h.809v4.492Z" transform="translate(-375.853 -191.457)" fill="#263238"/>
        <path id="_Compound_Path_30" data-name="&lt;Compound Path&gt;" d="M396.277,195.9a1.269,1.269,0,0,1-.788-.213.984.984,0,0,1-.383-.511,2.643,2.643,0,0,1-.106-.788v-1.6a2.643,2.643,0,0,1,.106-.788.982.982,0,0,1,.383-.532,1.87,1.87,0,0,1,1.511-.021.928.928,0,0,1,.362.447,2.018,2.018,0,0,1,.106.681v.383H396.7v-.383a2.426,2.426,0,0,0-.021-.341.425.425,0,0,0-.106-.255.416.416,0,0,0-.3-.085.5.5,0,0,0-.319.085.715.715,0,0,0-.128.277,2.612,2.612,0,0,0-.021.362v1.937a1.529,1.529,0,0,0,.043.4.358.358,0,0,0,.149.234.492.492,0,0,0,.554,0,.72.72,0,0,0,.128-.255,2.916,2.916,0,0,0,.021-.362v-.4h.766v.362a2.722,2.722,0,0,1-.085.7.887.887,0,0,1-.383.468,1.187,1.187,0,0,1-.724.192Z" transform="translate(-381.206 -191.3)" fill="#263238"/>
        <path id="_Compound_Path_31" data-name="&lt;Compound Path&gt;" d="M408.3,195.992l.894-4.492h.873l.894,4.492h-.766l-.17-1.043h-.788l-.17,1.043Zm1.022-1.554h.617l-.3-1.895Z" transform="translate(-391.674 -191.457)" fill="#263238" fill-rule="evenodd"/>
        <path id="_Compound_Path_32" data-name="&lt;Compound Path&gt;" d="M421.4,195.992v-3.9h-.7v-.6h2.235v.6h-.7v3.9Z" transform="translate(-401.435 -191.457)" fill="#263238"/>
        <path id="_Compound_Path_33" data-name="&lt;Compound Path&gt;" d="M433.2,195.992V191.5h.809v4.492Z" transform="translate(-411.274 -191.457)" fill="#263238"/>
        <path id="_Compound_Path_34" data-name="&lt;Compound Path&gt;" d="M441.2,195.9a1.331,1.331,0,0,1-.766-.192.981.981,0,0,1-.4-.511,2.129,2.129,0,0,1-.128-.788v-1.66a2.129,2.129,0,0,1,.128-.788.987.987,0,0,1,.4-.49,1.461,1.461,0,0,1,.766-.17,1.532,1.532,0,0,1,.766.17.987.987,0,0,1,.4.49,2.516,2.516,0,0,1,.106.788v1.682a2.436,2.436,0,0,1-.106.766.981.981,0,0,1-.4.511A1.394,1.394,0,0,1,441.2,195.9Zm0-.617a.466.466,0,0,0,.3-.085.53.53,0,0,0,.128-.234,2.738,2.738,0,0,0,.021-.341v-2.065a2.426,2.426,0,0,0-.021-.341.53.53,0,0,0-.128-.234.466.466,0,0,0-.3-.085.415.415,0,0,0-.3.085.351.351,0,0,0-.128.234,1.242,1.242,0,0,0-.043.341v2.065a2.749,2.749,0,0,0,.021.341.447.447,0,0,0,.149.234A.416.416,0,0,0,441.2,195.281Z" transform="translate(-416.547 -191.3)" fill="#263238" fill-rule="evenodd"/>
        <path id="_Compound_Path_35" data-name="&lt;Compound Path&gt;" d="M454.9,195.992V191.5h.575l1.086,2.555V191.5h.66v4.492h-.532l-1.086-2.682v2.682Z" transform="translate(-428.354 -191.457)" fill="#263238"/>
        <path id="_Compound_Path_36" data-name="&lt;Compound Path&gt;" d="M476.277,195.9a1.23,1.23,0,0,1-.766-.213.985.985,0,0,1-.383-.511,2.236,2.236,0,0,1-.128-.788v-1.6a2.236,2.236,0,0,1,.128-.788.983.983,0,0,1,.383-.532,1.82,1.82,0,0,1,1.49-.021.9.9,0,0,1,.383.447,2.018,2.018,0,0,1,.106.681v.383H476.7v-.383a2.426,2.426,0,0,0-.021-.341.425.425,0,0,0-.106-.255.38.38,0,0,0-.277-.085.5.5,0,0,0-.319.085.715.715,0,0,0-.128.277,2.607,2.607,0,0,0-.021.362v1.937a1.529,1.529,0,0,0,.043.4.407.407,0,0,0,.128.234.466.466,0,0,0,.3.085.38.38,0,0,0,.277-.085.517.517,0,0,0,.106-.255,2.916,2.916,0,0,0,.021-.362v-.4h.788v.362a2.21,2.21,0,0,1-.106.7.918.918,0,0,1-.362.468A1.229,1.229,0,0,1,476.277,195.9Z" transform="translate(-444.175 -191.3)" fill="#263238"/>
        <path id="_Compound_Path_37" data-name="&lt;Compound Path&gt;" d="M490.377,195.9a1.288,1.288,0,0,1-.745-.192.862.862,0,0,1-.4-.511,2.129,2.129,0,0,1-.128-.788v-1.66a2.129,2.129,0,0,1,.128-.788.862.862,0,0,1,.4-.49,1.413,1.413,0,0,1,.745-.17,1.461,1.461,0,0,1,.766.17.987.987,0,0,1,.4.49,2.129,2.129,0,0,1,.128.788v1.682a2.063,2.063,0,0,1-.128.766.981.981,0,0,1-.4.511A1.331,1.331,0,0,1,490.377,195.9Zm0-.617a.416.416,0,0,0,.3-.085.447.447,0,0,0,.149-.234,2.744,2.744,0,0,0,.021-.341v-2.065a2.431,2.431,0,0,0-.021-.341.447.447,0,0,0-.149-.234.416.416,0,0,0-.3-.085.466.466,0,0,0-.3.085.53.53,0,0,0-.128.234,2.43,2.43,0,0,0-.021.341v2.065a2.744,2.744,0,0,0,.021.341.53.53,0,0,0,.128.234A.466.466,0,0,0,490.377,195.281Z" transform="translate(-455.274 -191.3)" fill="#263238" fill-rule="evenodd"/>
        <path id="_Compound_Path_38" data-name="&lt;Compound Path&gt;" d="M504,195.992V191.5h1.064a1.949,1.949,0,0,1,.852.149.85.85,0,0,1,.447.468,2.028,2.028,0,0,1,.128.788v1.639a2.3,2.3,0,0,1-.128.809.85.85,0,0,1-.447.468,1.632,1.632,0,0,1-.809.17Zm.809-.575h.255a.627.627,0,0,0,.4-.106.472.472,0,0,0,.149-.277,4.333,4.333,0,0,0,.021-.468v-1.724a1.9,1.9,0,0,0-.043-.447.447.447,0,0,0-.149-.234.746.746,0,0,0-.4-.085h-.234Z" transform="translate(-467.002 -191.457)" fill="#263238" fill-rule="evenodd"/>
        <path id="_Compound_Path_39" data-name="&lt;Compound Path&gt;" d="M518.5,195.992V191.5h1.895v.575H519.33v1.3h.83v.553h-.83v1.49h1.064v.575Z" transform="translate(-478.415 -191.457)" fill="#263238"/>
      </g>
    </g>
    <g id="Arrow" transform="translate(124.573 46.51)">
      <g id="_Group_37" data-name="&lt;Group&gt;">
        <path id="_Path_39" data-name="&lt;Path&gt;" d="M803.6,46.9V67.847" transform="translate(-766.985 -46.9)" fill="none" stroke="#263238" stroke-linecap="round" stroke-linejoin="round" stroke-width="2" stroke-dasharray="10"/>
        <g id="_Group_38" data-name="&lt;Group&gt;" transform="translate(0 56.711)">
          <g id="_Group_39" data-name="&lt;Group&gt;">
            <path id="_Path_40" data-name="&lt;Path&gt;" d="M682.383,313.3v17.669a10.562,10.562,0,0,1-10.58,10.559H649.6" transform="translate(-645.768 -313.3)" fill="none" stroke="#263238" stroke-linecap="round" stroke-linejoin="round" stroke-width="2" stroke-dasharray="10 10"/>
            <g id="_Group_40" data-name="&lt;Group&gt;" transform="translate(0 25.567)">
              <path id="_Path_41" data-name="&lt;Path&gt;" d="M636.2,438.722l-4.6-2.661,4.6-2.661Z" transform="translate(-631.6 -433.4)" fill="#263238"/>
            </g>
          </g>
        </g>
      </g>
    </g>
    <g id="Email" transform="translate(139.453 66.563)">
      <g id="_Group_41" data-name="&lt;Group&gt;" transform="translate(0 0)">
        <path id="_Path_42" data-name="&lt;Path&gt;" d="M748.464,187.706l-37.765-7.77,5.556-27.035,37.786,7.77Z" transform="translate(-708.741 -150.388)" fill="#263238"/>
        <path id="_Path_43" data-name="&lt;Path&gt;" d="M739.265,175.906l-37.765-7.77,5.556-27.035,37.786,7.77Z" transform="translate(-701.5 -141.1)" fill="#fff" stroke="#263238" stroke-width="1"/>
        <path id="_Path_44" data-name="&lt;Path&gt;" d="M765.386,148.87l-21.671,9.622L727.6,141.1" transform="translate(-722.044 -141.1)" fill="none" stroke="#263238" stroke-linecap="round" stroke-linejoin="round" stroke-width="1"/>
      </g>
    </g>
    <g id="Character" transform="translate(94.988 136.489)">
      <g id="_Group_42" data-name="&lt;Group&gt;" transform="translate(0)">
        <g id="_Group_43" data-name="&lt;Group&gt;" transform="translate(0 46.599)">
          <path id="_Path_45" data-name="&lt;Path&gt;" d="M449.771,773.593c-.617,3.47-4,6.94-13.177,2.682-9.2-4.258-14.263-9.324-17.413-13.411s-12.326-12.751-12.326-12.751-2.959,3.385-4.96,5.577c-2.022,2.193-9.026,6.791-14.731,9.6-5.705,2.789-13.88,8.685-14.093,9.3-.234.6-1.107,6.408-1.767,7.408-.639,1.022-3.257-.192-4.172-.426a25.7,25.7,0,0,0-5.918-.788,23.9,23.9,0,0,1-7.621-1.66c-1.32-.553-1.916-1.192-1.895-2s4.428-.681,7.11-1.533c2.682-.83,7.068-3.576,8-4.151.937-.6,9.43-7.3,9.43-7.3L402,738.3a10.585,10.585,0,0,1,4.066-2.746c2.171-.66,10.069,2.129,19.287,8.962a94.328,94.328,0,0,1,16.6,16.668s8.43,8.962,7.813,12.411Z" transform="translate(-351.697 -735.457)" fill="#fff" stroke="#263238" stroke-linecap="round" stroke-linejoin="round" stroke-width="1"/>
          <path id="_Path_46" data-name="&lt;Path&gt;" d="M533.817,761.182s17.371,8.409,16.753,11.879c-.617,3.449,0,12.645-18.031,7.9-9.792-2.576-18.35-14.007-21.5-18.095s-12.326-12.751-12.326-12.751-2.959,3.385-4.96,5.577c-2.022,2.193-9.026,6.791-14.731,9.6a67.64,67.64,0,0,0-5.939,3.385,8.4,8.4,0,0,1-4.683-4.832L493.86,738.3a10.584,10.584,0,0,1,4.066-2.746c2.171-.66,10.069,2.129,19.287,8.962a94.33,94.33,0,0,1,16.6,16.668Z" transform="translate(-443.557 -735.457)" fill="#263238" stroke="#263238" stroke-linecap="round" stroke-linejoin="round" stroke-width="1"/>
          <path id="_Path_47" data-name="&lt;Path&gt;" d="M358.808,908.651c2.682-.83,7.068-3.576,8-4.151a5.769,5.769,0,0,1,.128,2.555,18.431,18.431,0,0,0,6,1.128c-.341,1.618-1.086,6.024-1.639,6.876-.639,1.022-3.257-.192-4.172-.426a25.7,25.7,0,0,0-5.918-.788,23.891,23.891,0,0,1-7.621-1.66c-1.32-.553-1.916-1.192-1.895-2S356.126,909.5,358.808,908.651Z" transform="translate(-351.697 -868.515)" fill="#fff" stroke="#263238" stroke-linecap="round" stroke-linejoin="round" stroke-width="1"/>
        </g>
        <path id="_Compound_Path_40" data-name="&lt;Compound Path&gt;" d="M759.086,558.439a8.1,8.1,0,0,1-4.258,5.407s0-1.66-1.746-6.791-3.661-7.046-8.451-9.154c-4.768-2.086-10.261-8.962-11.751-12.006-1.469-3.044-6.088-4.96-9.473-6-3.406-1.043-3.491,2-3.491,2s1.213,9.047,1.831,9.835,4.343,5.045,5.748,9.239c1.384,4.172-.788,7.3-2.7,8.174s-3.917-2.171-3.917-2.171a1.731,1.731,0,0,0,1.3.511c.873,0,.532-1.384-.511-2.512s-3.576-.085-7.153-2.448c-3.555-2.342-3.64-7.3-1.3-17.413,1.958-8.387,4.577-11.964,5.407-12.943q.255-.319.511-.66a12.369,12.369,0,0,1,7.664-4.683c5.663-1.128,9.835,1.4,12.709,6.535,2.874,5.152,1.831,7.238,5.663,13.752a62.686,62.686,0,0,0,11.751,13.944c2.448,2.171,2.874,3.64,2.171,7.387Zm-39.957-5.045s-5.386-2.618-4.875-7.3c0,0-1.043,3.3.617,5.13A7.757,7.757,0,0,0,719.129,553.393Z" transform="translate(-634.999 -516.556)" fill="#263238" stroke="#263238" stroke-linecap="round" stroke-linejoin="round" stroke-width="1" fill-rule="evenodd"/>
        <g id="_Group_44" data-name="&lt;Group&gt;" transform="translate(46.921 71.673)">
          <g id="_Group_45" data-name="&lt;Group&gt;">
            <path id="_Path_48" data-name="&lt;Path&gt;" d="M629.839,856.69c1.426.617,7.068,3.789,8.089,3.9s1.937-.319,2.98-.128.7,4.62.7,7.791-2.874,5.939-4.407,6.663c-1.533.7-7.77,1.533-10.644,1.533a28.419,28.419,0,0,1-11.24-2.874c-3.278-1.746-11.985-5.726-11.985-5.726a33.688,33.688,0,0,1-4.3,3.47c-2.044,1.341-5.726,2.15-6.131,2.363s-1.937,1.235-3.278,1.937a20.768,20.768,0,0,1-11.048,1.745c-4.7-.724-6.131-1.426-6.45-2.959-.3-1.533,2.874-3.172,5.428-3.683s6.961.3,8.2.3a5.62,5.62,0,0,0,3.981-2.044c1.341-1.426,8.792-13.709,11.666-14.731s14.433,1.022,14.433,1.022S628.413,856.073,629.839,856.69Z" transform="translate(-572.108 -853.804)" fill="#263238" stroke="#263238" stroke-linecap="round" stroke-linejoin="round" stroke-width="1"/>
            <path id="_Path_49" data-name="&lt;Path&gt;" d="M693.4,857.32a40.813,40.813,0,0,1,3.47-3.64c1.277-1.022,10.772.064,10.772.064" transform="translate(-667.58 -853.242)" fill="none" stroke="#fff" stroke-linecap="round" stroke-linejoin="round" stroke-width="1"/>
            <path id="_Path_50" data-name="&lt;Path&gt;" d="M684.8,877.635s.447-.511,1.086-1.235" transform="translate(-660.81 -871.47)" fill="none" stroke="#fff" stroke-linecap="round" stroke-linejoin="round" stroke-width="1"/>
          </g>
          <path id="_Path_51" data-name="&lt;Path&gt;" d="M592.862,930.328c-.447.234-1.937,1.213-3.236,1.916a20.768,20.768,0,0,1-11.048,1.746c-4.7-.724-6.131-1.426-6.45-2.959-.3-1.554,2.874-3.172,5.428-3.683s6.961.3,8.2.3a5.36,5.36,0,0,0,3.662-1.746A6.615,6.615,0,0,0,592.862,930.328Z" transform="translate(-572.108 -910.433)" fill="#fff" stroke="#263238" stroke-linecap="round" stroke-linejoin="round" stroke-width="1"/>
          <path id="_Path_52" data-name="&lt;Path&gt;" d="M590.244,936.63q-.3.17-.617.341a20.768,20.768,0,0,1-11.048,1.746c-4.7-.724-6.131-1.426-6.45-2.959-.3-1.554,2.874-3.172,5.428-3.683s6.961.3,8.2.3a3.763,3.763,0,0,0,.873-.106c-.511.575-1.064,1.448-.575,2.256.724,1.15,2.916,1.937,4.194,2.108Z" transform="translate(-572.108 -915.159)" fill="#fff" stroke="#263238" stroke-linecap="round" stroke-linejoin="round" stroke-width="1"/>
        </g>
        <g id="_Group_46" data-name="&lt;Group&gt;" transform="translate(76.619 7.077)">
          <path id="_Path_53" data-name="&lt;Path&gt;" d="M761.252,659.264c2.342.17,10.708,1.384,14.54,3.385s3.3,4.875,4.875,15.072c1.554,10.176-2.171,19.308-2.256,21.416-.106,2.086.341,3.3.341,5.386a5.993,5.993,0,0,1-.617,3.044s.788,2.959,2,6.45a80.989,80.989,0,0,0,4,8.622s-2.874.085-3.725.085a4.574,4.574,0,0,1-4.7-3.576,107.792,107.792,0,0,1-1.66-10.793l-2,2.171s-2.086-1.639-5.322-4.172a16.132,16.132,0,0,0-9.835-3.917c-3.47-.085-9.665-.873-9.665-.873s.362-2.7.106-2.789c-.277-.085-3.832-2.342-4.449-3.555-.617-1.235-.617-4.449-.532-9.409s-.681-19.947.192-22.991c.852-3.044,8.877-3.129,8.877-3.129S758.889,659.072,761.252,659.264Z" transform="translate(-735.626 -635.932)" fill="#dce7e7" stroke="#263238" stroke-linecap="round" stroke-linejoin="round" stroke-width="1"/>
          <path id="_Compound_Path_41" data-name="&lt;Compound Path&gt;" d="M727.5,577.134c1.384,4.172-.788,7.3-2.7,8.174s-3.917-2.171-3.917-2.171a1.731,1.731,0,0,0,1.3.511c.873,0,.532-1.384-.511-2.512s-3.576-.085-7.153-2.448c-3.555-2.342-3.64-7.3-1.3-17.413a37.782,37.782,0,0,1,4.343-11.474c-.341,2.278-.852,6.6-.192,8.856a43.407,43.407,0,0,0,3.917,7.706,5.668,5.668,0,0,0,.468,1.533C722.365,568.682,726.09,572.94,727.5,577.134Zm-8.366,2.427s-5.386-2.618-4.875-7.3c0,0-1.043,3.3.617,5.13A7.757,7.757,0,0,0,719.129,579.56Z" transform="translate(-711.618 -549.8)" fill="#263238" stroke="#263238" stroke-linecap="round" stroke-linejoin="round" stroke-width="1" fill-rule="evenodd"/>
          <g id="_Group_47" data-name="&lt;Group&gt;" transform="translate(11.541 30.548)">
            <path id="_Path_54" data-name="&lt;Path&gt;" d="M837.8,850.4c1.49.234,2.469.362,2.469.362" transform="translate(-822.479 -816.957)" fill="none" stroke="#263238" stroke-linecap="round" stroke-linejoin="round" stroke-width="1"/>
            <path id="_Path_55" data-name="&lt;Path&gt;" d="M779.342,800.635c-5.045-.745-12.836-1.916-13.326-2.193-.745-.426,1-10.942,1-10.942" transform="translate(-765.831 -767.447)" fill="none" stroke="#263238" stroke-linecap="round" stroke-linejoin="round" stroke-width="1"/>
            <path id="_Path_56" data-name="&lt;Path&gt;" d="M766.973,841.4l-.873,3.555" transform="translate(-766.043 -809.873)" fill="none" stroke="#263238" stroke-linecap="round" stroke-linejoin="round" stroke-width="1"/>
            <path id="_Path_57" data-name="&lt;Path&gt;" d="M869.235,875.623s-.383.255-2.98-.49S858.4,872.6,858.4,872.6" transform="translate(-838.694 -834.431)" fill="none" stroke="#263238" stroke-linecap="round" stroke-linejoin="round" stroke-width="1"/>
            <path id="_Path_58" data-name="&lt;Path&gt;" d="M821.045,693.3l-.106,3.3L817,694.364" transform="translate(-806.107 -693.3)" fill="none" stroke="#263238" stroke-linecap="round" stroke-linejoin="round" stroke-width="1"/>
            <path id="_Path_59" data-name="&lt;Path&gt;" d="M789.124,696.3l-.724.575" transform="translate(-783.595 -695.661)" fill="none" stroke="#263238" stroke-linecap="round" stroke-linejoin="round" stroke-width="1"/>
            <path id="_Path_60" data-name="&lt;Path&gt;" d="M768.464,722.222,768.4,720.2" transform="translate(-767.853 -714.474)" fill="none" stroke="#263238" stroke-linecap="round" stroke-linejoin="round" stroke-width="1"/>
          </g>
        </g>
        <g id="_Group_48" data-name="&lt;Group&gt;" transform="translate(82.363 10.909)">
          <path id="_Path_61" data-name="&lt;Path&gt;" d="M747.52,568.864c2.98,1,7.344,4.875,7.344,4.875l3.151,8.089-1.49,7.11s-3.065,10.005-3.3,10.58c-.255.575-.83.66-1.98-1.746-1.171-2.384-1.49-9.175-1.49-9.175a3.355,3.355,0,0,1-1.32.426c-.575,0-3.151-1.66-4.47-3.065a15.351,15.351,0,0,1-3.3-5.45c-.575-1.895-2.065-6.6-2.065-7.685,0-1.064,4.534-5.024,4.534-5.024a18.46,18.46,0,0,1,4.385,1.064Z" transform="translate(-738.6 -567.8)" fill="#fff" stroke="#263238" stroke-linecap="round" stroke-linejoin="round" stroke-width="1"/>
          <path id="_Path_62" data-name="&lt;Path&gt;" d="M773.895,636.049c-.341.83-1.4.49-1.66.426C772,636.39,772,634.9,772,634.9" transform="translate(-764.89 -620.616)" fill="none" stroke="#263238" stroke-linecap="round" stroke-linejoin="round" stroke-width="1"/>
          <path id="_Path_63" data-name="&lt;Path&gt;" d="M776.2,644.8s2.491.341,3.321-1.4" transform="translate(-768.196 -627.307)" fill="none" stroke="#263238" stroke-linecap="round" stroke-linejoin="round" stroke-width="1"/>
          <path id="_Path_64" data-name="&lt;Path&gt;" d="M791,650.23a27.173,27.173,0,0,0,4.215-4.13s-1.66,3.9-2.15,4.875a16.842,16.842,0,0,0-.745,1.746Z" transform="translate(-779.845 -629.432)" fill="#263238" stroke="#263238" stroke-linecap="round" stroke-linejoin="round" stroke-width="1"/>
          <path id="_Path_65" data-name="&lt;Path&gt;" d="M784,614.245s2.235.66,3.129-.745" transform="translate(-774.335 -603.771)" fill="none" stroke="#263238" stroke-linecap="round" stroke-linejoin="round" stroke-width="1"/>
          <path id="_Path_66" data-name="&lt;Path&gt;" d="M779.3,604.12s2.491-1.4,4.215-.83" transform="translate(-770.636 -595.626)" fill="none" stroke="#263238" stroke-linecap="round" stroke-linejoin="round" stroke-width="1"/>
          <path id="_Path_67" data-name="&lt;Path&gt;" d="M751.8,620.755a2.022,2.022,0,0,0,2.469-.255" transform="translate(-748.99 -609.281)" fill="none" stroke="#263238" stroke-linecap="round" stroke-linejoin="round" stroke-width="1"/>
          <path id="_Path_68" data-name="&lt;Path&gt;" d="M751.365,610.724a3.134,3.134,0,0,0-3.066.085" transform="translate(-746.235 -601.315)" fill="none" stroke="#263238" stroke-linecap="round" stroke-linejoin="round" stroke-width="1"/>
        </g>
        <g id="_Group_49" data-name="&lt;Group&gt;" transform="translate(101.99 33.296)">
          <path id="_Path_69" data-name="&lt;Path&gt;" d="M839.592,678.25c1.469-6.876,8.068-6.365,9.558-2.342,1.916,5.13.7,12.347.447,17.839s-2.256,17.754-2.256,17.754-3.491.873-8.536-1.916a40.807,40.807,0,0,1-8-5.663l3.725-4.96,2.789,1.128a16.371,16.371,0,0,1-.426-1.724c-.085-.617,1.831-1.49,1.831-1.831,0-.362.511-7.664.17-9.92a16.371,16.371,0,0,1,.617-5.577" transform="translate(-830.8 -672.963)" fill="#dce7e7" stroke="#263238" stroke-linecap="round" stroke-linejoin="round" stroke-width="1"/>
          <path id="_Path_70" data-name="&lt;Path&gt;" d="M893.4,774.241l.851-.341" transform="translate(-880.074 -752.413)" fill="none" stroke="#263238" stroke-linecap="round" stroke-linejoin="round" stroke-width="1"/>
          <path id="_Path_71" data-name="&lt;Path&gt;" d="M872.9,778.984l3.3-1.384" transform="translate(-863.938 -755.325)" fill="none" stroke="#263238" stroke-linecap="round" stroke-linejoin="round" stroke-width="1"/>
          <path id="_Path_72" data-name="&lt;Path&gt;" d="M864.3,796.293s7.3-1.831,7.217-1.235c-.085.617-2.512.873-2.512.873" transform="translate(-857.169 -768.973)" fill="none" stroke="#263238" stroke-linecap="round" stroke-linejoin="round" stroke-width="1"/>
          <path id="_Path_73" data-name="&lt;Path&gt;" d="M868,802.9s5.386.617,6.344,2.874" transform="translate(-860.081 -775.239)" fill="none" stroke="#263238" stroke-linecap="round" stroke-linejoin="round" stroke-width="1"/>
          <path id="_Path_74" data-name="&lt;Path&gt;" d="M893.5,826.9a3.55,3.55,0,0,0,1,.468" transform="translate(-880.153 -794.13)" fill="none" stroke="#263238" stroke-linecap="round" stroke-linejoin="round" stroke-width="1"/>
          <path id="_Path_75" data-name="&lt;Path&gt;" d="M865.9,806.6s2.874,2.363,4.981,3.768" transform="translate(-858.428 -778.152)" fill="none" stroke="#263238" stroke-linecap="round" stroke-linejoin="round" stroke-width="1"/>
        </g>
        <path id="_Path_76" data-name="&lt;Path&gt;" d="M702.973,727.2l7.259,7.919s2.661,5.3,3.832,6.94,1.213,2.129,1.171,3.406c-.064,1.277-2.661,3.768-3.874,3.278-1.235-.468-1.6-3.811-2.235-5.258-.639-1.426-1.852-5.13-2.278-5.343s-4.9-4.513-5.641-5.215c-.724-.681,1.235-4.875,1.235-4.875Z" transform="translate(-626.677 -682.359)" fill="#fff" stroke="#263238" stroke-linecap="round" stroke-linejoin="round" stroke-width="1"/>
        <path id="_Path_77" data-name="&lt;Path&gt;" d="M699.987,708.865l6.152,12.155-6.3-.851L691.6,706.8Z" transform="translate(-619.242 -666.301)" fill="#263238" stroke="#263238" stroke-linecap="round" stroke-linejoin="round" stroke-width="1"/>
        <g id="_Group_50" data-name="&lt;Group&gt;" transform="translate(75.676 43.557)">
          <path id="_Path_78" data-name="&lt;Path&gt;" d="M733.5,741.867l-11.41-9.132a39.852,39.852,0,0,1-7,.064c-2.214-.213-1.958-.149-2.831-.681-.873-.511-.958-1.724-1.49-2-.511-.255-1.128-1.043-1.746-1.469-.6-.447-1.554-1.043-1.809-1.746-.277-.7,1.895-.341,1.895-.341s-.426-.277-1.128-.788c-.681-.532-.766-1.405-.17-1.213a16.819,16.819,0,0,0,4.236,1.128,9.566,9.566,0,0,0,4.364-.468s.894-.149.553-.319a9.387,9.387,0,0,1-2.448-1.128,2.132,2.132,0,0,1-.788-2.363c.17-.958,1.49,1.235,2.171,1.49a7.576,7.576,0,0,0,2.789,0,2.419,2.419,0,0,1,2.363.788,6.142,6.142,0,0,1,.873,2.342,34.367,34.367,0,0,0,3.47,2.618c2.448,1.639,11.836,8.26,11.836,8.26Z" transform="translate(-707.185 -721.169)" fill="#fff" stroke="#263238" stroke-linecap="round" stroke-linejoin="round" stroke-width="1"/>
          <path id="_Path_79" data-name="&lt;Path&gt;" d="M723.438,747.543h-4.7A19.175,19.175,0,0,1,716.2,746.5" transform="translate(-714.281 -741.108)" fill="none" stroke="#263238" stroke-linecap="round" stroke-linejoin="round" stroke-width="1"/>
          <path id="_Path_80" data-name="&lt;Path&gt;" d="M721.253,756.528a26.965,26.965,0,0,1-2.767-.064,17.274,17.274,0,0,1-2.916-.7,6.49,6.49,0,0,0-1.469-.362" transform="translate(-712.628 -748.113)" fill="none" stroke="#263238" stroke-linecap="round" stroke-linejoin="round" stroke-width="1"/>
          <path id="_Path_81" data-name="&lt;Path&gt;" d="M729.854,764.392a23.413,23.413,0,0,1-2.959.106c-.468-.106-2.9-1.3-2.9-1.3" transform="translate(-720.421 -754.253)" fill="none" stroke="#263238" stroke-linecap="round" stroke-linejoin="round" stroke-width="1"/>
        </g>
        <g id="_Group_51" data-name="&lt;Group&gt;" transform="translate(86.408 8.762)">
          <path id="_Path_82" data-name="&lt;Path&gt;" d="M835.771,603.174c-1.66-.277-2.618.873-5.3,2.342-2.7,1.49-10.367,3.917-12.453-1.916s-1.128-19.5-1.128-19.5a89.608,89.608,0,0,0,8.622,10.793A52.589,52.589,0,0,0,835.771,603.174Z" transform="translate(-804.094 -578.483)" fill="#263238" stroke="#263238" stroke-linecap="round" stroke-linejoin="round" stroke-width="1"/>
          <path id="_Path_83" data-name="&lt;Path&gt;" d="M769.819,565.8c-5.9-.383-11.73-5.939-11.73-5.939s-1.724-4.321,1.3-.7C762.432,562.778,769.819,565.8,769.819,565.8Z" transform="translate(-757.6 -557.714)" fill="#263238" stroke="#263238" stroke-linecap="round" stroke-linejoin="round" stroke-width="1"/>
        </g>
      </g>
    </g>
  </g>
</svg>
