<svg xmlns="http://www.w3.org/2000/svg" width="76" height="76" viewBox="0 0 76 76">
  <g id="Group_33" data-name="Group 33" transform="translate(-256.443 -670.443)">
    <circle id="Ellipse_54" data-name="Ellipse 54" cx="38" cy="38" r="38" transform="translate(256.443 670.443)" fill="#3d6161"/>
    <g id="Icon_ionic-ios-notifications-outline" data-name="Icon ionic-ios-notifications-outline" transform="translate(279.4 690.057)">
      <path id="Path_224" data-name="Path 224" d="M22.212,28.336a1.207,1.207,0,0,0-1.183.95,2.335,2.335,0,0,1-.466,1.016,1.761,1.761,0,0,1-1.5.55,1.79,1.79,0,0,1-1.5-.55,2.335,2.335,0,0,1-.466-1.016,1.207,1.207,0,0,0-1.183-.95h0a1.215,1.215,0,0,0-1.183,1.481,4.163,4.163,0,0,0,4.332,3.457A4.155,4.155,0,0,0,23.4,29.817a1.22,1.22,0,0,0-1.183-1.481Z" transform="translate(-4.198 4.004)" fill="#fff"/>
      <path id="Path_225" data-name="Path 225" d="M36.184,31.537c-1.435-1.891-4.258-3-4.258-11.469,0-8.693-3.839-12.187-7.416-13.025-.335-.084-.578-.2-.578-.55v-.27A2.285,2.285,0,0,0,21.7,3.93H21.64A2.285,2.285,0,0,0,19.4,6.222v.27c0,.345-.242.466-.578.55-3.587.848-7.416,4.332-7.416,13.025,0,8.469-2.823,9.569-4.258,11.469A1.849,1.849,0,0,0,8.633,34.5h26.1A1.851,1.851,0,0,0,36.184,31.537Zm-3.634.54H10.823a.409.409,0,0,1-.307-.68,11.287,11.287,0,0,0,1.957-3.112A21.114,21.114,0,0,0,13.8,20.068c0-3.475.652-6.2,1.947-8.087a5.978,5.978,0,0,1,3.606-2.572,3.265,3.265,0,0,0,1.733-.978A.737.737,0,0,1,22.2,8.412a3.375,3.375,0,0,0,1.752,1,5.978,5.978,0,0,1,3.606,2.572c1.3,1.891,1.947,4.612,1.947,8.087a21.114,21.114,0,0,0,1.332,8.218,11.416,11.416,0,0,0,2,3.159A.385.385,0,0,1,32.55,32.077Z" transform="translate(-6.775 -3.93)" fill="#fff"/>
    </g>
  </g>
</svg>
