<svg xmlns="http://www.w3.org/2000/svg" width="22.977" height="40.27" viewBox="0 0 22.977 40.27">
  <g id="icon1" transform="translate(-183.874 -0.496) rotate(90)">
    <path id="Path_26876" data-name="Path 26876" d="M5.851-206.788a6.981,6.981,0,0,0-1.973.721,6.7,6.7,0,0,0-1.714,10.214l.44.485-.519.575a6.63,6.63,0,0,0,.428,9.064,6.235,6.235,0,0,0,7.677.947,12.96,12.96,0,0,0,2.593-2.413,2.028,2.028,0,0,1,.924-.609c.338-.09,2.446-.124,7.159-.1,7.689.034,6.967-.068,8.083,1.229,1.838,2.119,3.45,2.9,5.7,2.773a6.507,6.507,0,0,0,6.076-6.618,6.3,6.3,0,0,0-1.59-4.3l-.507-.552.53-.586a6.829,6.829,0,0,0,1.578-4.769,6.772,6.772,0,0,0-4.306-5.772,4.463,4.463,0,0,0-2.063-.3,5.734,5.734,0,0,0-4.724,2.007c-.406.428-.947.992-1.195,1.263a2.154,2.154,0,0,1-.936.609c-.361.09-2.356.113-7.159.09-6.054-.034-6.708-.056-7.023-.225a6.21,6.21,0,0,1-1.06-1.015,7.211,7.211,0,0,0-3.844-2.615A7.953,7.953,0,0,0,5.851-206.788Zm1.849.936c1.387.2,2.086.631,3.675,2.243,1.116,1.127,1.511,1.466,1.871,1.567.631.18,14.1.192,14.757.011.349-.1.744-.44,1.86-1.567,1.59-1.612,2.3-2.052,3.653-2.243a5.638,5.638,0,0,1,6.065,7.1,5.588,5.588,0,0,1-1.511,2.537,3.282,3.282,0,0,0-.654.834,3.954,3.954,0,0,0,.71.891,5.46,5.46,0,0,1,1.657,3.957,5.542,5.542,0,0,1-7.756,5.175,7.459,7.459,0,0,1-2.165-1.792c-1.1-1.139-1.511-1.466-1.86-1.567-.665-.18-14.126-.169-14.757.011-.361.1-.767.44-1.871,1.567a7.4,7.4,0,0,1-2.165,1.781,5.547,5.547,0,0,1-7.756-5.175,5.583,5.583,0,0,1,1.714-4.013,3.283,3.283,0,0,0,.654-.834,4.109,4.109,0,0,0-.722-.9,5.617,5.617,0,0,1-1.646-3.946,5.763,5.763,0,0,1,4.678-5.625c.372-.056.7-.1.733-.113S7.272-205.909,7.7-205.853Z" transform="translate(0)" fill="#3d6161"/>
  </g>
</svg>
