<svg xmlns="http://www.w3.org/2000/svg" xmlns:xlink="http://www.w3.org/1999/xlink" width="202.826" height="206.013" viewBox="0 0 202.826 206.013">
  <defs>
    <linearGradient id="linear-gradient" x1="0.421" y1="0.977" x2="0.702" y2="0.996" gradientUnits="objectBoundingBox">
      <stop offset="0" stop-color="#444b8c"/>
      <stop offset="1" stop-color="#26264f"/>
    </linearGradient>
    <linearGradient id="linear-gradient-2" x1="-1.448" y1="-1.256" x2="27.548" y2="78.405" gradientUnits="objectBoundingBox">
      <stop offset="0" stop-color="#ffc444"/>
      <stop offset="1" stop-color="#f36f56"/>
    </linearGradient>
    <linearGradient id="linear-gradient-3" x1="-11.949" y1="12" x2="-10.88" y2="10.932" gradientUnits="objectBoundingBox">
      <stop offset="0" stop-color="#311944"/>
      <stop offset="1" stop-color="#893976"/>
    </linearGradient>
    <linearGradient id="linear-gradient-4" x1="0.002" y1="-0.001" x2="0.998" y2="-0.001" xlink:href="#linear-gradient-3"/>
    <linearGradient id="linear-gradient-5" x1="0.084" y1="2.121" x2="-0.037" y2="0.454" gradientUnits="objectBoundingBox">
      <stop offset="0" stop-color="#3d6161"/>
      <stop offset="1" stop-color="#3d6161"/>
    </linearGradient>
    <linearGradient id="linear-gradient-6" x1="0.001" y1="-0.011" x2="0.999" y2="-0.011" gradientUnits="objectBoundingBox">
      <stop offset="0" stop-color="#f36f56"/>
      <stop offset="1" stop-color="#ffc444"/>
    </linearGradient>
    <linearGradient id="linear-gradient-7" x1="0.001" y1="-0.011" x2="1" y2="-0.011" xlink:href="#linear-gradient-6"/>
    <linearGradient id="linear-gradient-8" x1="0.949" y1="-1.475" x2="1.08" y2="2.47" xlink:href="#linear-gradient-6"/>
  </defs>
  <g id="Illustration" transform="translate(-477.329 -455.008)">
    <g id="_Group_" data-name="&lt;Group&gt;" transform="translate(479.5 455.008)">
      <path id="_Path_" data-name="&lt;Path&gt;" d="M680.025,569.418c-.979,30.7-1.648,51.607-10.926,64.7-23.25,32.793-118.421,41.711-164.561-8.263-25.163-27.26-32.867-68.934-16.165-105.752,18.387-40.533,60.171-61.532,96.687-64.637,27.282-2.318,70.472,3.73,85.327,29.2,5.194,8.888,6.305,22.632,8.535,50.12A293.127,293.127,0,0,1,680.025,569.418Z" transform="translate(-479.5 -455.007)" fill="#eee"/>
      <g id="_Group_2" data-name="&lt;Group&gt;" transform="translate(69.111 6.786)">
        <g id="_Group_3" data-name="&lt;Group&gt;" transform="translate(50.685 1.263)">
          <path id="_Compound_Path_" data-name="&lt;Compound Path&gt;" d="M2123.58,564.41l2.774.36a.808.808,0,0,1,.692.912l-.221,1.611a11.854,11.854,0,0,1,2.068.846l.986-1.288a.818.818,0,0,1,1.14-.147l2.222,1.7a.818.818,0,0,1,.147,1.14l-.986,1.28a13.414,13.414,0,0,1,1.376,1.788l1.486-.618a.818.818,0,0,1,1.059.441l1.074,2.612a.814.814,0,0,1-.434,1.067l-1.479.618a12.806,12.806,0,0,1,.294,2.266l1.589.206a.823.823,0,0,1,.706.927l-.36,2.825a.821.821,0,0,1-.92.714l-1.6-.206a12.792,12.792,0,0,1-.868,2.126l1.28.993a.837.837,0,0,1,.155,1.163l-1.729,2.288a.817.817,0,0,1-1.155.162l-1.288-1.008a12.875,12.875,0,0,1-1.81,1.413l.618,1.53a.845.845,0,0,1-.449,1.1l-2.634,1.118a.822.822,0,0,1-1.082-.449l-.618-1.545a12.833,12.833,0,0,1-2.259.3l-.228,1.663a.84.84,0,0,1-.934.728l-2.825-.368a.832.832,0,0,1-.706-.942l.235-1.685a12.1,12.1,0,0,1-2.082-.876l-1.03,1.346a.827.827,0,0,1-1.163.162l-2.244-1.758a.844.844,0,0,1-.133-1.17l1.045-1.361a12.555,12.555,0,0,1-1.346-1.81l-1.567.662a.812.812,0,0,1-1.067-.449l-1.045-2.656a.85.85,0,0,1,.464-1.089l1.567-.647a13.269,13.269,0,0,1-.25-2.244l-1.67-.221a.8.8,0,0,1-.692-.92l.419-2.825a.836.836,0,0,1,.927-.706l1.67.221a12.978,12.978,0,0,1,.875-2.075l-1.31-1.023a.808.808,0,0,1-.132-1.14l1.751-2.237a.813.813,0,0,1,1.141-.154l1.31,1.015a12.8,12.8,0,0,1,1.781-1.361l-.618-1.53a.831.831,0,0,1,.456-1.067l2.6-1.067a.8.8,0,0,1,1.06.434l.611,1.516a13.035,13.035,0,0,1,2.215-.294l.228-1.619A.812.812,0,0,1,2123.58,564.41Zm-2.053,25.347a10.264,10.264,0,0,0,11.449-8.873,10.1,10.1,0,0,0-8.653-11.39,10.264,10.264,0,0,0-11.426,8.756A10.085,10.085,0,0,0,2121.527,589.757Z" transform="translate(-2107.678 -564.402)" fill="#d8dee8" fill-rule="evenodd"/>
        </g>
        <g id="_Group_4" data-name="&lt;Group&gt;">
          <path id="_Compound_Path_2" data-name="&lt;Compound Path&gt;" d="M1443.4,547.249l4.282.559a1.246,1.246,0,0,1,1.074,1.405l-.338,2.487a19.652,19.652,0,0,1,3.193,1.31l1.53-1.979a1.254,1.254,0,0,1,1.759-.235l3.429,2.634a1.262,1.262,0,0,1,.228,1.766l-1.516,1.979a19.752,19.752,0,0,1,2.119,2.759l2.3-.956a1.253,1.253,0,0,1,1.641.684l1.67,4.032a1.272,1.272,0,0,1-.677,1.655l-2.288.957a19.6,19.6,0,0,1,.456,3.495l2.465.324a1.275,1.275,0,0,1,1.089,1.427l-.559,4.378a1.277,1.277,0,0,1-1.42,1.1l-2.472-.324A20.13,20.13,0,0,1,1460.02,580l1.979,1.53a1.3,1.3,0,0,1,.236,1.8l-2.671,3.546a1.271,1.271,0,0,1-1.788.243l-1.994-1.552a19.949,19.949,0,0,1-2.8,2.178l.956,2.369a1.309,1.309,0,0,1-.692,1.692l-4.083,1.729a1.258,1.258,0,0,1-1.663-.7l-.956-2.384a19.678,19.678,0,0,1-3.495.464l-.353,2.583a1.294,1.294,0,0,1-1.442,1.118l-4.37-.574a1.277,1.277,0,0,1-1.089-1.449l.368-2.6a19.553,19.553,0,0,1-3.23-1.354l-1.589,2.082a1.269,1.269,0,0,1-1.8.243l-3.465-2.715a1.3,1.3,0,0,1-.213-1.81l1.619-2.1a19.806,19.806,0,0,1-2.075-2.8l-2.428,1.015a1.249,1.249,0,0,1-1.655-.692l-1.611-4.1a1.309,1.309,0,0,1,.721-1.678l2.421-1.015a19.9,19.9,0,0,1-.39-3.458l-2.583-.346a1.244,1.244,0,0,1-1.067-1.427l.647-4.363a1.3,1.3,0,0,1,1.435-1.1l2.575.338a20.609,20.609,0,0,1,1.361-3.2l-2.023-1.582a1.254,1.254,0,0,1-.206-1.773l2.7-3.458a1.266,1.266,0,0,1,1.773-.228l2.023,1.567a19.6,19.6,0,0,1,2.752-2.1l-.956-2.369a1.272,1.272,0,0,1,.7-1.641l4.025-1.656a1.242,1.242,0,0,1,1.633.677l.949,2.34a19.533,19.533,0,0,1,3.421-.456l.353-2.509A1.258,1.258,0,0,1,1443.4,547.249Zm-3.178,39.187a15.855,15.855,0,0,0,17.7-13.715,15.6,15.6,0,0,0-13.369-17.614,15.878,15.878,0,0,0-17.673,13.545,15.608,15.608,0,0,0,13.347,17.783Z" transform="translate(-1418.81 -547.237)" fill="#d8dee8" fill-rule="evenodd"/>
        </g>
      </g>
      <g id="_Group_5" data-name="&lt;Group&gt;" transform="translate(65.79 26.207)">
        <path id="_Path_2" data-name="&lt;Path&gt;" d="M1446.292,813.056l78.786-1.656c4.8,0,7.152,2.237,6.857,4.709l-19.682,165.643c-.294,2.48-2.914,4.922-7.7,4.628l-78.072-8.572a4.107,4.107,0,0,1-3.583-4.657l18.74-155.8a4.973,4.973,0,0,1,4.65-4.3Z" transform="translate(-1419.25 -811.385)" fill="url(#linear-gradient)"/>
        <path id="_Path_3" data-name="&lt;Path&gt;" d="M1397.218,812.574l81.839-1.383a3.929,3.929,0,0,1,4.135,4.437l-19.792,166.5a4.729,4.729,0,0,1-5.158,4.083l-80.942-8.057a4.129,4.129,0,0,1-3.6-4.679l18.85-156.578A4.983,4.983,0,0,1,1397.218,812.574Z" transform="translate(-1373.671 -811.19)" fill="#699797"/>
        <path id="_Path_4" data-name="&lt;Path&gt;" d="M1435.159,941.214l76.9-.817a3.684,3.684,0,0,1,3.841,4.157l-18.291,153.8a4.416,4.416,0,0,1-4.8,3.811l-76.122-7.4a3.844,3.844,0,0,1-3.37-4.363L1430.8,945.224a4.633,4.633,0,0,1,4.363-4.01Z" transform="translate(-1410.376 -930.891)" fill="#d8dee8"/>
        <path id="_Path_5" data-name="&lt;Path&gt;" d="M2207.547,866.4a1.3,1.3,0,0,1,1.346,1.486,1.786,1.786,0,0,1-1.707,1.53,1.286,1.286,0,0,1-1.332-1.486A1.772,1.772,0,0,1,2207.547,866.4Z" transform="translate(-2144.615 -862.335)" fill="url(#linear-gradient-2)"/>
        <g id="_Group_6" data-name="&lt;Group&gt;" transform="translate(20.917 0)">
          <path id="_Path_6" data-name="&lt;Path&gt;" d="M1670.614,922.983c15.584-28.813,38.863-37.436,45.875-67.131,3.789-16.054,1.207-31.417-3.142-44.168l29.077-.493a3.929,3.929,0,0,1,4.135,4.437l-19.792,166.5a4.729,4.729,0,0,1-5.158,4.083l-63.629-6.335c-.471-25.818,5.688-44.05,12.633-56.889Z" transform="translate(-1657.955 -811.19)" fill="#eff2f6"/>
        </g>
      </g>
      <g id="_Group_7" data-name="&lt;Group&gt;" transform="translate(-2.171 79.49)">
        <g id="_Group_8" data-name="&lt;Group&gt;" transform="translate(0 1.221)">
          <path id="_Path_7" data-name="&lt;Path&gt;" d="M585.9,764.216c0-15.3,13.354-27.716,29.379-27.716,15.554,0,27.827,11.758,27.827,26.259s-12.273,26.885-27.827,27.68c-16.025.817-29.379-10.911-29.379-26.223Z" transform="translate(-585.9 -736.5)" fill="url(#linear-gradient-3)"/>
        </g>
        <g id="_Group_9" data-name="&lt;Group&gt;" transform="translate(1.722)">
          <path id="_Path_8" data-name="&lt;Path&gt;" d="M609.3,747.616c0-15.3,12.972-27.716,28.533-27.716,15.105.007,27.025,11.758,27.025,26.259s-11.919,26.885-27.025,27.68C622.271,774.656,609.3,762.927,609.3,747.616Z" transform="translate(-609.3 -719.9)" fill="#3d6161"/>
        </g>
        <g id="_Group_10" data-name="&lt;Group&gt;" transform="translate(6.166 4.319)" opacity="0.5">
          <path id="_Path_9" data-name="&lt;Path&gt;" d="M669.7,801.887c0-12.869,10.9-23.294,23.971-23.287,12.685,0,22.7,9.874,22.7,22.058s-10.014,22.581-22.7,23.25c-13.075.692-23.971-9.16-23.971-22.021Z" transform="translate(-669.7 -778.6)" fill="#fff"/>
        </g>
        <path id="_Path_10" data-name="&lt;Path&gt;" d="M691.6,793.536A24.094,24.094,0,0,1,713.96,778.6c12.685,0,22.7,9.874,22.7,22.058a22.47,22.47,0,0,1-2.5,10.257,22.371,22.371,0,0,0,1.6-8.277c0-12.184-10.014-22.066-22.706-22.066A24.17,24.17,0,0,0,691.6,793.536Z" transform="translate(-683.823 -774.281)" fill="#fff" opacity="0.5"/>
        <g id="_Group_11" data-name="&lt;Group&gt;" transform="translate(19.292 12.581)">
          <path id="_Compound_Path_3" data-name="&lt;Compound Path&gt;" d="M868.518,1047.5v11.1a6.1,6.1,0,0,1-6,5.974l-8.329.221a5.805,5.805,0,0,1-6.092-5.724v-11.22Zm-7.564,11.839-1.545-4.613a2.123,2.123,0,0,0,1.111-1.847,2.071,2.071,0,0,0-2.156-2.038,2.172,2.172,0,0,0-2.156,2.126,2.028,2.028,0,0,0,1.111,1.8l-1.545,4.687Z" transform="translate(-848.1 -1035.977)" fill="#fff" fill-rule="evenodd"/>
          <path id="_Path_11" data-name="&lt;Path&gt;" d="M876.061,901.443a1.545,1.545,0,0,1-1.6-1.53A6.005,6.005,0,0,0,868.277,894a6.232,6.232,0,0,0-6.225,6.107,1.629,1.629,0,0,1-1.626,1.589,1.567,1.567,0,0,1-1.626-1.538,9.468,9.468,0,0,1,9.477-9.271,9.109,9.109,0,0,1,9.381,8.969,1.611,1.611,0,0,1-1.6,1.582Z" transform="translate(-858.013 -890.891)" fill="#fff"/>
        </g>
      </g>
      <g id="_Group_12" data-name="&lt;Group&gt;" transform="translate(61.494 49.693)">
        <path id="_Path_12" data-name="&lt;Path&gt;" d="M1414.6,1138.444,1399.4,1254.2v-.007a3.694,3.694,0,0,1-3.944,3.142l-.11-.044h0l-45.095-3.458v.037l-30.152-2.318c-1.737-.132-4.532-2.87-4.29-4.665l16.224-108.422a3.778,3.778,0,0,1,3.6-3.223l67.955-.162,7.828-.022-.383-2.053C1412.979,1133,1414.84,1136.561,1414.6,1138.444Z" transform="translate(-1315.76 -1132.808)" fill="url(#linear-gradient-4)"/>
        <g id="_Group_13" data-name="&lt;Group&gt;">
          <path id="_Path_13" data-name="&lt;Path&gt;" d="M1397.383,1249.527a3.723,3.723,0,0,1-3.944,3.164l-75.431-5.8a2.994,2.994,0,0,1-2.7-3.488l14.745-109.57a3.777,3.777,0,0,1,3.591-3.23l75.857-.206a2.955,2.955,0,0,1,3.068,3.392Z" transform="translate(-1315.278 -1130.4)" fill="url(#linear-gradient-5)"/>
          <path id="_Path_14" data-name="&lt;Path&gt;" d="M1566.74,1758.919a1.909,1.909,0,0,1-1.957,1.6l-66.388-2.421a1.422,1.422,0,0,1-1.376-1.655l1.31-9.675a1.743,1.743,0,0,1,1.8-1.479l66.447,1.847a1.444,1.444,0,0,1,1.516,1.641Z" transform="translate(-1483.634 -1700.05)" fill="#fff"/>
          <path id="_Path_15" data-name="&lt;Path&gt;" d="M1532.558,2010.639a1.98,1.98,0,0,1-1.964,1.692l-66.337-3.274a1.521,1.521,0,0,1-1.361-1.781l1.31-9.867a1.874,1.874,0,0,1,1.81-1.626l66.381,2.678a1.606,1.606,0,0,1,1.508,1.839Z" transform="translate(-1452.019 -1932.111)" fill="#fff"/>
          <path id="_Path_16" data-name="&lt;Path&gt;" d="M1568.085,1748.743a1.862,1.862,0,0,0-.508-.081l-66.454-1.847a1.742,1.742,0,0,0-1.8,1.479l-1.3,9.675a.228.228,0,0,0-.007.073,1.411,1.411,0,0,1-1.008-1.6l1.31-9.675a1.743,1.743,0,0,1,1.8-1.479l66.447,1.847A1.45,1.45,0,0,1,1568.085,1748.743Z" transform="translate(-1483.625 -1700.05)" opacity="0.1" fill="url(#linear-gradient-6)"/>
          <path id="_Path_17" data-name="&lt;Path&gt;" d="M1533.863,2000.089a1.5,1.5,0,0,0-.515-.11l-66.381-2.678a1.866,1.866,0,0,0-1.8,1.633l-1.317,9.859a1.652,1.652,0,0,0-.015.191,1.569,1.569,0,0,1-1-1.707l1.317-9.867a1.874,1.874,0,0,1,1.81-1.626l66.373,2.678A1.6,1.6,0,0,1,1533.863,2000.089Z" transform="translate(-1451.963 -1932.111)" opacity="0.1" fill="url(#linear-gradient-7)"/>
          <path id="_Path_18" data-name="&lt;Path&gt;" d="M1651.7,2363.329a3.043,3.043,0,0,1-3.061,2.641l-34.323-2.347a2.535,2.535,0,0,1-2.215-2.928l1.413-10.683a2.946,2.946,0,0,1,2.936-2.56l34.338,1.972a2.558,2.558,0,0,1,2.347,2.936Z" transform="translate(-1590.24 -2257.901)" fill="#8baeb0"/>
          <g id="_Group_14" data-name="&lt;Group&gt;" transform="translate(39.765 9.602)">
            <path id="_Path_19" data-name="&lt;Path&gt;" d="M1881.459,1273.79a14.87,14.87,0,0,1-14.6,12.626,11.272,11.272,0,0,1-8.734-4.172,11.458,11.458,0,0,1-2.266-8.734,14.865,14.865,0,0,1,14.392-12.611A11.081,11.081,0,0,1,1881.459,1273.79Z" transform="translate(-1855.74 -1260.899)" fill="url(#linear-gradient-8)"/>
            <g id="_Group_15" data-name="&lt;Group&gt;" transform="translate(2.381 3.443)">
              <path id="_Path_20" data-name="&lt;Path&gt;" d="M1972.07,1313.262a6.453,6.453,0,0,1-6.3,5.474,4.784,4.784,0,0,1-4.79-5.562,6.454,6.454,0,0,1,6.254-5.474A4.785,4.785,0,0,1,1972.07,1313.262Z" transform="translate(-1955.574 -1307.699)" fill="#fff"/>
              <path id="_Path_21" data-name="&lt;Path&gt;" d="M1906.737,1485.706a14.465,14.465,0,0,1-9.9,3.863,11.273,11.273,0,0,1-8.734-4.172,12.3,12.3,0,0,1,9.977-5.209A9.4,9.4,0,0,1,1906.737,1485.706Z" transform="translate(-1888.1 -1467.496)" fill="#fff"/>
            </g>
          </g>
          <path id="_Path_22" data-name="&lt;Path&gt;" d="M1736.335,1133.792l-15.186,115.736a3.829,3.829,0,0,1-4.054,3.156l-45.3-3.48a24.164,24.164,0,0,1-5.195-8.02,25.011,25.011,0,0,1-1.376-5,41.7,41.7,0,0,1,.714-15.893,52.45,52.45,0,0,1,4.312-12.081,39.651,39.651,0,0,1,5.283-8.02c1.435-1.656,2.98-3.259,4.613-4.834,1.972-1.906,4.069-3.76,6.225-5.6,5.033-4.29,10.418-8.476,15.407-12.905,11.515-10.213,20.852-21.617,18.607-37.9-.074-.515-.78-4.437-1.67-8.513l14.443-.037A3.042,3.042,0,0,1,1736.335,1133.792Z" transform="translate(-1639.043 -1130.4)" fill="#fff" opacity="0.4"/>
        </g>
      </g>
    </g>
  </g>
</svg>
