<svg xmlns="http://www.w3.org/2000/svg" width="203.343" height="181.609" viewBox="0 0 203.343 181.609">
  <g id="OBJECTS" transform="translate(-280.3 -371)">
    <g id="_Group_" data-name="&lt;Group&gt;" transform="translate(280.3 371)">
      <g id="_Group_2" data-name="&lt;Group&gt;" transform="translate(0.72 62.21)">
        <g id="_Group_3" data-name="&lt;Group&gt;" transform="translate(0 23.463)">
          <path id="_Path_" data-name="&lt;Path&gt;" d="M471.058,1087.452H299.508a34.479,34.479,0,0,1-13.482-33.394c2.47-14.02,14.268-25.8,28.412-27.929,10.722-1.615,20.837,4.457,31.476,4.181s15.317-8.528,21.071-16.076c6.292-8.266,13.771-16.559,23.665-20.464,5.368-2.111,11.508-2.677,16.918-.648,6.831,2.58,10.584,8.735,14.765,14.3,4.374,5.8,9.646,9.066,16.959,10,8.417,1.09,17.594-.1,25.583,3.146a32.754,32.754,0,0,1,17.387,16.987c7.976,18.132,1.366,36.568-11.2,49.9Z" transform="translate(-285.519 -991.861)" fill="#d9f5f6"/>
          <g id="_Group_4" data-name="&lt;Group&gt;" transform="translate(5.489 2.655)">
            <path id="_Path_2" data-name="&lt;Path&gt;" d="M563.223,1288.421a33.4,33.4,0,0,0-.317-22.975,66.424,66.424,0,0,0-5.492-10.129,65.237,65.237,0,0,1-5.589-10.377A22.67,22.67,0,0,1,550.5,1240q.179.028.359.042a22.75,22.75,0,0,0,1.283,4.774,64.13,64.13,0,0,0,5.575,10.322,67.629,67.629,0,0,1,5.506,10.184,33.584,33.584,0,0,1,.317,23.21,35.969,35.969,0,0,1-7.479,12.819h-.469A35.7,35.7,0,0,0,563.223,1288.421Z" transform="translate(-519.425 -1208.414)" fill="#fff"/>
            <path id="_Path_3" data-name="&lt;Path&gt;" d="M840.6,1088.416a20.834,20.834,0,0,0-3.491,1.683,229.971,229.971,0,0,0,24.273,8.486l.276.069a47.961,47.961,0,0,1,9.19,3.422l-.235.262a48.348,48.348,0,0,0-9.052-3.353l-.276-.069a231.429,231.429,0,0,1-24.548-8.6,25.227,25.227,0,0,0-9.866,11.936c-.248.58-.469,1.187-.662,1.78h-.359c.207-.635.442-1.283.7-1.918a25.583,25.583,0,0,1,9.8-11.964c-3.1-1.339-6.223-2.787-9.314-4.374-5.906,4.471-11.66,9.163-17.276,13.758q-2.732,2.235-5.52,4.5h-.552c1.973-1.587,3.919-3.187,5.851-4.761,5.575-4.568,11.288-9.232,17.152-13.675-3.45-1.794-6.872-3.753-10.184-5.92a89.92,89.92,0,0,1-19.8-17.428l-4.457.5c-5.092.552-10.363,1.145-15.469,1.794-1.835.234-3.684.51-5.547.855,1.421,2.994,2.787,6.016,4.153,9.025l.152.331c4.788,10.584,9.742,20.8,16.255,29.281h-.428c-6.458-8.473-11.384-18.629-16.145-29.144l-.152-.331c-1.366-3.022-2.746-6.072-4.181-9.094-8.183,1.546-16.145,4.457-20.367,11.246-3.919,6.334-3.905,15.1.055,26.08q.221.635.469,1.242h-.373q-.221-.552-.428-1.131c-4-11.081-4-19.953-.014-26.37,4.278-6.872,12.267-9.825,20.505-11.4-4.029-8.473-8.445-16.752-14.144-23.845q.124-.124.248-.235c5.754,7.148,10.2,15.483,14.241,24.024,1.891-.359,3.795-.635,5.658-.883,5.106-.649,10.377-1.228,15.469-1.794l4.236-.469a67.707,67.707,0,0,1-11.108-18.96c-4.333-11.508-4.1-22.81.649-31.006q.179-.3.359-.593l.58-.276q-.331.511-.635,1.035c-4.705,8.114-4.926,19.3-.621,30.717a67,67,0,0,0,11.191,19.043c24.452-2.746,49.359-6.168,69.644-19.733.745-.5,1.559-1.076,2.415-1.739a3.277,3.277,0,0,0,.29.207c-.883.69-1.739,1.3-2.511,1.821-20.3,13.565-45.151,17.014-69.575,19.76a90.024,90.024,0,0,0,19.581,17.18,115.269,115.269,0,0,0,10.294,5.989c2.3-1.739,4.636-3.45,6.982-5.092,17.138-11.964,32.966-18.753,48.255-20.685q.055.165.1.331c-15.248,1.918-31.034,8.693-48.145,20.643-2.3,1.6-4.581,3.27-6.844,4.968,3.1,1.6,6.251,3.05,9.37,4.388a20.781,20.781,0,0,1,3.781-1.835,30.377,30.377,0,0,1,10.667-1.766c5.837,0,11.715,1.256,17.152,2.415,3.574.759,7.01,1.435,10.335,1.863q-.083.166-.166.317c-3.3-.414-6.706-1.09-10.239-1.849-8.762-1.863-18.684-3.974-27.64-.662Z" transform="translate(-689.014 -1011.1)" fill="#fff"/>
            <path id="_Path_4" data-name="&lt;Path&gt;" d="M327.8,1325.976l.221-.276A23.777,23.777,0,0,1,335,1337.843a28.04,28.04,0,0,1-1.89,18.712,32.432,32.432,0,0,1-7.617,9.811q-.1-.138-.193-.29a31.641,31.641,0,0,0,7.493-9.673,27.524,27.524,0,0,0,1.863-18.477A23.324,23.324,0,0,0,327.8,1325.976Z" transform="translate(-325.3 -1282.288)" fill="#fff"/>
          </g>
        </g>
        <path id="_Path_5" data-name="&lt;Path&gt;" d="M823.385,824.572a12.925,12.925,0,0,1,2.691,13.013,20.841,20.841,0,0,1-9.342,10.9c-3.408,1.987-7.838,3.077-11.191,1.007a9.067,9.067,0,0,1-3.864-7.534,19.7,19.7,0,0,1,2.139-8.473c1.725-3.767,4.043-7.424,7.493-9.715C816.071,820.612,820.487,821.619,823.385,824.572Z" transform="translate(-730.451 -821.831)" fill="#f7f0e3"/>
      </g>
      <g id="_Group_5" data-name="&lt;Group&gt;" transform="translate(12.737 0)">
        <path id="_Compound_Path_" data-name="&lt;Compound Path&gt;" d="M514.794,382.108H489.9V371h24.894Zm-24.369-.524h23.845V371.5H490.424Z" transform="translate(-473.714 -371)" fill="#e9ddca" fill-rule="evenodd"/>
        <path id="_Compound_Path_2" data-name="&lt;Compound Path&gt;" d="M397.48,459.122H372.6V448h24.88Zm-24.355-.524h23.845V448.524H373.124Z" transform="translate(-372.6 -437.375)" fill="#e9ddca" fill-rule="evenodd"/>
      </g>
      <g id="_Group_6" data-name="&lt;Group&gt;" transform="translate(87.182 2.677)">
        <g id="_Group_7" data-name="&lt;Group&gt;">
          <path id="_Path_6" data-name="&lt;Path&gt;" d="M1063.687,440.22a39.744,39.744,0,0,1-2.167,13.344,55.489,55.489,0,0,1-5.464,11.288,68.445,68.445,0,0,1-7.617,9.853q-4.305,4.664-8.362,8.8-3.05,3.1-6.348,6.61a61.612,61.612,0,0,0-5.975,7.382,46.525,46.525,0,0,0-4.443,8.169,22.594,22.594,0,0,0-1.766,8.693v3.1a23.294,23.294,0,0,0,.248,3.629h-33.5l-6.886-4.664h6.306q-.028-.566-.055-1.159c-.1-2.166-.124-4.029-.124-5.589a44.308,44.308,0,0,1,1.78-13.082A51.245,51.245,0,0,1,994,485.715a60.629,60.629,0,0,1,6.72-9.466q3.809-4.409,7.865-8.542,5.837-5.961,10.667-11.8a20.356,20.356,0,0,0,4.816-13.357,14.049,14.049,0,0,0-4.692-10.625q-4.692-4.4-13.827-4.4a62.215,62.215,0,0,0-17.263,2.332,97.749,97.749,0,0,0-18.022,7.507l-6.679-1.959,4.609-3.726-8.6-23.6a78.181,78.181,0,0,1,23.362-9.977,104.342,104.342,0,0,1,26.4-3.505q16.242,0,26.77,4.416t16.628,11.136a38.586,38.586,0,0,1,8.514,14.779,53.481,53.481,0,0,1,2.415,15.289Z" transform="translate(-953.046 -394.02)" fill="#8baeb0"/>
          <path id="_Path_7" data-name="&lt;Path&gt;" d="M957.513,422.262a62.879,62.879,0,0,0-17.056,2.249,97.7,97.7,0,0,0-17.815,7.272L912.1,403.44a78.4,78.4,0,0,1,23.086-9.659A105.575,105.575,0,0,1,961.28,390.4q16.035,0,26.453,4.264t16.435,10.791a36.825,36.825,0,0,1,8.4,14.3,50.594,50.594,0,0,1,2.387,14.793,37.632,37.632,0,0,1-2.139,12.916,52.677,52.677,0,0,1-5.4,10.929,66.828,66.828,0,0,1-7.521,9.521q-4.264,4.526-8.28,8.528-3.008,3.008-6.265,6.4a57.662,57.662,0,0,0-5.892,7.148,42.812,42.812,0,0,0-4.4,7.907,21.378,21.378,0,0,0-1.753,8.4v3.008a21.63,21.63,0,0,0,.248,3.5h-33.1a34.828,34.828,0,0,1-.635-5.644c-.083-2.084-.124-3.878-.124-5.4a42.532,42.532,0,0,1,1.752-12.668,49.08,49.08,0,0,1,4.65-10.529,60.045,60.045,0,0,1,6.637-9.163q3.767-4.264,7.783-8.266,5.768-5.782,10.542-11.426a19.526,19.526,0,0,0,4.761-12.916,13.48,13.48,0,0,0-4.65-10.294Q966.537,422.262,957.513,422.262Z" transform="translate(-912.1 -390.4)" fill="#3d6161"/>
        </g>
        <g id="_Group_8" data-name="&lt;Group&gt;" transform="translate(26.218 140.668)">
          <path id="_Path_8" data-name="&lt;Path&gt;" d="M1187.865,1430.118q0,9.066-5.865,13.992a20.287,20.287,0,0,1-26.536,0q-5.858-4.926-5.865-13.992,0-9.045,5.865-13.992a20.394,20.394,0,0,1,21.968-2.649A18.835,18.835,0,0,1,1187.865,1430.118Z" transform="translate(-1143.046 -1411.186)" fill="#8baeb0"/>
          <path id="_Path_9" data-name="&lt;Path&gt;" d="M1140.365,1428.732q0,9.066-5.865,13.992a20.287,20.287,0,0,1-26.536,0q-5.858-4.926-5.865-13.992,0-9.045,5.865-13.992a20.287,20.287,0,0,1,26.536,0Q1140.365,1419.68,1140.365,1428.732Z" transform="translate(-1102.1 -1409.8)" fill="#3d6161"/>
        </g>
      </g>
      <g id="_Group_9" data-name="&lt;Group&gt;" transform="translate(11.182 43.593)">
        <g id="_Group_10" data-name="&lt;Group&gt;" transform="translate(14.637)">
          <path id="_Path_10" data-name="&lt;Path&gt;" d="M615.3,896.982a3.609,3.609,0,1,1-5.023-.938A3.608,3.608,0,0,1,615.3,896.982Z" transform="translate(-589.212 -866.639)" fill="#d3dfff"/>
          <path id="_Path_11" data-name="&lt;Path&gt;" d="M647.8,960.454a2.043,2.043,0,1,1-1.642-2.373A2.041,2.041,0,0,1,647.8,960.454Z" transform="translate(-619.414 -920.632)" fill="#d3dfff"/>
          <g id="_Group_11" data-name="&lt;Group&gt;">
            <path id="_Path_12" data-name="&lt;Path&gt;" d="M495.587,703.745a14.209,14.209,0,1,1-11.357-16.586A14.207,14.207,0,0,1,495.587,703.745Z" transform="translate(-467.411 -686.911)" fill="#d3dfff"/>
            <g id="_Group_12" data-name="&lt;Group&gt;" transform="translate(6.953 12.418)">
              <path id="_Path_13" data-name="&lt;Path&gt;" d="M521.388,778.694a1.794,1.794,0,1,1-1.794-1.794A1.79,1.79,0,0,1,521.388,778.694Z" transform="translate(-517.8 -776.9)" fill="#fff"/>
              <path id="_Path_14" data-name="&lt;Path&gt;" d="M560.974,778.694a1.787,1.787,0,1,1-1.78-1.794A1.787,1.787,0,0,1,560.974,778.694Z" transform="translate(-551.936 -776.9)" fill="#fff"/>
              <path id="_Path_15" data-name="&lt;Path&gt;" d="M600.488,778.694a1.794,1.794,0,1,1-1.794-1.794A1.79,1.79,0,0,1,600.488,778.694Z" transform="translate(-585.985 -776.9)" fill="#fff"/>
            </g>
          </g>
        </g>
        <g id="_Group_13" data-name="&lt;Group&gt;" transform="translate(0 45.268)">
          <g id="_Group_14" data-name="&lt;Group&gt;" transform="translate(8.325 56.513)">
            <g id="_Group_15" data-name="&lt;Group&gt;" transform="translate(10.251 23.269)">
              <path id="_Path_16" data-name="&lt;Path&gt;" d="M497.968,1595.21c5.768-1.946,12.447-2.346,19.581-1.932l1.477,7.369c-5.188,3.822-14.227,4.9-18.587,5.188a2.931,2.931,0,0,1-3.063-2.139l-1.325-5.119A2.828,2.828,0,0,1,497.968,1595.21Z" transform="translate(-495.962 -1593.131)" fill="#102048"/>
              <path id="_Path_17" data-name="&lt;Path&gt;" d="M544.7,1620.1a.153.153,0,0,1-.166-.124l-1.78-6.375a.181.181,0,0,1,.11-.221.189.189,0,0,1,.221.124l1.78,6.389a.169.169,0,0,1-.124.207Z" transform="translate(-536.292 -1610.587)" fill="#fff"/>
              <path id="_Path_18" data-name="&lt;Path&gt;" d="M572.6,1613.876a.166.166,0,0,1-.166-.124l-1.78-6.389a.172.172,0,0,1,.11-.207.177.177,0,0,1,.221.124l1.78,6.375a.158.158,0,0,1-.124.207A.056.056,0,0,1,572.6,1613.876Z" transform="translate(-560.342 -1605.214)" fill="#fff"/>
            </g>
            <path id="_Path_19" data-name="&lt;Path&gt;" d="M542.123,1424.5l9.273,13.951L527,1448.759l-17.677-1.407L497,1430.475l16.586-4.926Z" transform="translate(-486.605 -1424.5)" fill="#3d6161"/>
            <path id="_Path_20" data-name="&lt;Path&gt;" d="M641.443,1435.419c36.43-10.777,42.28,21.416-14.558,27.281a27.732,27.732,0,0,1-5.285-9.466l30.013-13.868Z" transform="translate(-594.012 -1432.024)" fill="#3d6161"/>
            <path id="_Path_21" data-name="&lt;Path&gt;" d="M717.424,1614.039l-6.085-1.242L710,1606.435l5.851-1.835a15.812,15.812,0,0,0,3.339,1.614A13.116,13.116,0,0,1,717.424,1614.039Z" transform="translate(-670.213 -1579.748)" fill="#f9b384"/>
            <path id="_Path_22" data-name="&lt;Path&gt;" d="M620.962,1483.613l-.262-.455c6.265-3.643,22.3-12.378,35.96-14.958l.1.51C643.179,1471.277,627.2,1479.984,620.962,1483.613Z" transform="translate(-593.236 -1462.17)" fill="#e49b31"/>
            <path id="_Path_23" data-name="&lt;Path&gt;" d="M448.652,1426.857c-33.9-6.444-42.68,26.149,14.144,32a20.415,20.415,0,0,0,4.512-8.2,256.187,256.187,0,0,0-29.185-16.683Z" transform="translate(-421.671 -1425.808)" fill="#3d6161"/>
            <path id="_Path_24" data-name="&lt;Path&gt;" d="M547.018,1482.674c-1.615-1.035-3.284-2.125-5.064-3.27-8.942-5.768-19.057-12.3-27.653-16.021l.193-.483c8.652,3.74,18.794,10.294,27.736,16.076q2.67,1.718,5.064,3.256Z" transform="translate(-501.518 -1457.601)" fill="#e49b31"/>
            <path id="_Path_25" data-name="&lt;Path&gt;" d="M434.142,1518.771l-.442-.248a9.55,9.55,0,0,1,6.058-4.623l.138.51A8.914,8.914,0,0,0,434.142,1518.771Z" transform="translate(-432.04 -1501.564)" fill="#e49b31"/>
            <path id="_Path_26" data-name="&lt;Path&gt;" d="M913.854,1504.571a8.932,8.932,0,0,0-5.754-4.374l.138-.5a9.533,9.533,0,0,1,6.072,4.623Z" transform="translate(-840.977 -1489.323)" fill="#e49b31"/>
            <path id="_Path_27" data-name="&lt;Path&gt;" d="M694.373,1601.228l-.373-.359a19.522,19.522,0,0,0,5.092-9.37l.51.1A19.939,19.939,0,0,1,694.373,1601.228Z" transform="translate(-656.421 -1568.456)" fill="#e49b31"/>
            <g id="_Group_16" data-name="&lt;Group&gt;" transform="translate(47.211 23.739)">
              <path id="_Path_28" data-name="&lt;Path&gt;" d="M779.545,1608.382a30.288,30.288,0,0,1-14.71-1.09l-1.035-.207a13.116,13.116,0,0,0,1.766-7.824,4.918,4.918,0,0,0,2.028.29c2.125-.235,10.542-4.871,14.889-2.18C785.892,1599.482,786.541,1606.975,779.545,1608.382Z" transform="translate(-763.8 -1596.534)" fill="#102048"/>
              <path id="_Path_29" data-name="&lt;Path&gt;" d="M850.318,1619.358a.121.121,0,0,1-.055-.014.161.161,0,0,1-.11-.207c.511-1.642.731-4.857-.759-7.01a.159.159,0,0,1,.041-.234.177.177,0,0,1,.248.041c1.559,2.263,1.325,5.6.787,7.3a.148.148,0,0,1-.152.124Z" transform="translate(-837.554 -1609.745)" fill="#fff"/>
              <path id="_Path_30" data-name="&lt;Path&gt;" d="M825.641,1624a.122.122,0,0,1-.055-.014.161.161,0,0,1-.11-.207c.511-1.642.731-4.857-.759-7.01a.19.19,0,0,1,.041-.248.18.18,0,0,1,.248.055c1.559,2.249,1.325,5.6.8,7.3a.174.174,0,0,1-.166.124Z" transform="translate(-816.285 -1613.738)" fill="#fff"/>
            </g>
          </g>
          <g id="_Group_17" data-name="&lt;Group&gt;">
            <g id="_Group_18" data-name="&lt;Group&gt;" transform="translate(19.231 0.296)">
              <path id="_Path_31" data-name="&lt;Path&gt;" d="M500.7,1027.453s10.46-9.6,11.95-10.211.786.994.786.994,1.959-1.366,2.415-1.035-.511,1.6-.511,1.6,1.656-1.408,2.415-1.035-.828,2.663-.828,2.663,2.346-1.628,2.649-.759c.179.483-3.215,4.512-3.215,4.512s2.415-1.449,2.636-.455c.317,1.38-8.224,8.638-8.224,8.638Z" transform="translate(-500.7 -1017.104)" fill="#f9b384"/>
              <g id="_Group_19" data-name="&lt;Group&gt;" transform="translate(9.61 0.961)">
                <path id="_Path_32" data-name="&lt;Path&gt;" d="M574.308,1049.394a.168.168,0,0,1-.124-.055,7.8,7.8,0,0,0-3.726-2.153.17.17,0,0,1-.11-.221.172.172,0,0,1,.207-.11,8.089,8.089,0,0,1,3.864,2.235.176.176,0,0,1,.014.248A.248.248,0,0,1,574.308,1049.394Z" transform="translate(-570.339 -1043.705)" fill="#e28b6d"/>
                <path id="_Path_33" data-name="&lt;Path&gt;" d="M579.355,1077.009h-.028a.172.172,0,0,1-.138-.193,2.832,2.832,0,0,1,1.159-2.291,2.223,2.223,0,0,1,2.015.083.178.178,0,0,1,.083.235.166.166,0,0,1-.221.083,1.954,1.954,0,0,0-1.711-.11,2.606,2.606,0,0,0-.98,2.042A.178.178,0,0,1,579.355,1077.009Z" transform="translate(-577.966 -1067.387)" fill="#e28b6d"/>
                <path id="_Path_34" data-name="&lt;Path&gt;" d="M576.4,1026.435a.15.15,0,0,1-.124-.055.175.175,0,0,1,0-.248l2.153-2.015a.171.171,0,0,1,.235.248l-2.139,2.028A.223.223,0,0,1,576.4,1026.435Z" transform="translate(-575.413 -1024.071)" fill="#e28b6d"/>
                <path id="_Path_35" data-name="&lt;Path&gt;" d="M590.8,1030.619a.222.222,0,0,1-.124-.042.175.175,0,0,1,0-.248l2.056-2.153a.176.176,0,0,1,.248.248l-2.056,2.139A.169.169,0,0,1,590.8,1030.619Z" transform="translate(-587.826 -1027.566)" fill="#e28b6d"/>
                <path id="_Path_36" data-name="&lt;Path&gt;" d="M605.489,1041.994a.248.248,0,0,1-.124-.055.172.172,0,0,1-.014-.235l1.614-1.739a.176.176,0,0,1,.262.235l-1.615,1.739a.248.248,0,0,1-.124.055Z" transform="translate(-600.486 -1037.726)" fill="#e28b6d"/>
              </g>
            </g>
            <g id="_Group_20" data-name="&lt;Group&gt;" transform="translate(0 8.726)">
              <path id="_Path_37" data-name="&lt;Path&gt;" d="M590.963,1222.463l-31.227,1.214-3.436-28.467s10.446-9.908,14.461-13.564l6.789-.345C598.622,1190.876,595.172,1202.827,590.963,1222.463Z" transform="translate(-529.397 -1167.073)" fill="#8baeb0"/>
              <path id="_Path_38" data-name="&lt;Path&gt;" d="M710.3,1181.3s24.093,2.056,31.7,18.574c7.438,16.159-23.113,21.9-23.113,21.9Z" transform="translate(-662.147 -1167.073)" fill="#8baeb0"/>
              <path id="_Path_39" data-name="&lt;Path&gt;" d="M403.42,1094.745l-3.45,13.316c-11.729,3.45-26.232,4.6-30.013,4.14a9.571,9.571,0,0,1-8.473-8,11.287,11.287,0,0,1,.3-4.968,13.176,13.176,0,0,1,3.05-5.285A121.8,121.8,0,0,1,382.6,1078.2l9.314,5.644-9.963,12.129C388.462,1093.572,401.64,1093.751,403.42,1094.745Z" transform="translate(-361.338 -1078.2)" fill="#8baeb0"/>
            </g>
            <g id="_Group_21" data-name="&lt;Group&gt;" transform="translate(5.087 12.742)" opacity="0.8">
              <path id="_Path_40" data-name="&lt;Path&gt;" d="M776.842,1200.123c-1.118.138-4.885.386-6-2.18a4.017,4.017,0,0,1,.442-3.643q.124.041.262.083a3.748,3.748,0,0,0-.469,3.45c1.049,2.415,4.664,2.166,5.74,2.042,1.794-.221,3.615-.635,5.382-1.035q.166.083.331.179a1.282,1.282,0,0,1-.152.041,53.566,53.566,0,0,1-5.533,1.063Z" transform="translate(-719.19 -1182.295)" fill="#fff"/>
              <path id="_Path_41" data-name="&lt;Path&gt;" d="M890.181,1359.137a2.512,2.512,0,0,1-.069.248c-.428-.138-.856-.3-1.269-.455a7.719,7.719,0,0,0-3.477-.773,4.765,4.765,0,0,0-3.947,4.581,7.321,7.321,0,0,0,1.739,4.83l-.221.138a7.572,7.572,0,0,1-1.78-4.968,5.033,5.033,0,0,1,4.181-4.844,8.1,8.1,0,0,1,3.588.787c.414.166.828.317,1.256.455Z" transform="translate(-814.506 -1323.301)" fill="#fff"/>
              <path id="_Path_42" data-name="&lt;Path&gt;" d="M423.347,1298.585l-.276.028a5.541,5.541,0,0,0-1.518-2.1c-1.435-1.187-3.7-1.5-6.182-.855a10.837,10.837,0,0,0-5.409,3.16c-.083-.028-.166-.069-.262-.1a11.114,11.114,0,0,1,5.6-3.312c2.58-.662,4.912-.331,6.417.911A5.874,5.874,0,0,1,423.347,1298.585Z" transform="translate(-408.113 -1269.166)" fill="#fff"/>
              <path id="_Path_43" data-name="&lt;Path&gt;" d="M398.545,1117a30.668,30.668,0,0,0,7.645-3.022,8.734,8.734,0,0,0,2.718-2.222,3.69,3.69,0,0,0,.676-3.27,2.4,2.4,0,0,0-.649-1.021l.193-.166a2.663,2.663,0,0,1,.7,1.1,3.928,3.928,0,0,1-.718,3.5,8.88,8.88,0,0,1-2.8,2.291,31.224,31.224,0,0,1-8.114,3.146Z" transform="translate(-398.2 -1107.3)" fill="#fff"/>
            </g>
            <g id="_Group_22" data-name="&lt;Group&gt;" transform="translate(30.971)">
              <path id="_Path_44" data-name="&lt;Path&gt;" d="M671.907,1132.741v.442l-.069,6.858-.014.745a4.271,4.271,0,0,1-8.542-.014l-.083-8.473Z" transform="translate(-652.517 -1116.108)" fill="#f9b384"/>
              <path id="_Path_45" data-name="&lt;Path&gt;" d="M692.251,1138.7l-.069,6.858a10.844,10.844,0,0,1-5.382-5.685Z" transform="translate(-672.861 -1121.625)" fill="#102048"/>
              <path id="_Path_46" data-name="&lt;Path&gt;" d="M667.894,1048.107c1.366,1.642,5.354,10.929,1.311,14.1-4.554,3.574-11.481-2.291-11.481-2.291l-.924-10.832,6.016-1.587Z" transform="translate(-647 -1043.01)" fill="#f9b384"/>
              <path id="_Path_47" data-name="&lt;Path&gt;" d="M596.8,1059.233c-.731,3.036.993,7.106,2.774,10.266a5.4,5.4,0,1,1-9.521,5.106c-10.874-20.05,2.47-27,2.47-27Z" transform="translate(-585.784 -1043.096)" fill="#102048"/>
              <path id="_Path_48" data-name="&lt;Path&gt;" d="M624.817,1048.9a3.608,3.608,0,1,1-3.615-3.6A3.61,3.61,0,0,1,624.817,1048.9Z" transform="translate(-613.21 -1041.114)" fill="#fbc343"/>
              <path id="_Path_49" data-name="&lt;Path&gt;" d="M633.1,1028.668l-3.753.566c-3.781-3.891-2.111-15.593,10.391-13.151,4.885-3.312,7.217,1.463,5.685,4.485s-9.549,1.559-9.549,1.559c-2.277,1.159-2.028,2.7-1.642,4.954a1.378,1.378,0,0,1-1.132,1.587Z" transform="translate(-621.793 -1014.96)" fill="#102048"/>
              <g id="_Group_23" data-name="&lt;Group&gt;" transform="translate(16.133 8.022)">
                <path id="_Path_50" data-name="&lt;Path&gt;" d="M718.063,1099.538a.531.531,0,1,1-.524-.538A.536.536,0,0,1,718.063,1099.538Z" transform="translate(-715.026 -1095.425)" fill="#102048"/>
                <path id="_Path_51" data-name="&lt;Path&gt;" d="M744.263,1086.724a.531.531,0,1,1-1.063,0,.531.531,0,0,1,1.063,0Z" transform="translate(-737.611 -1084.391)" fill="#102048"/>
                <path id="_Path_52" data-name="&lt;Path&gt;" d="M737.1,1099.411a.132.132,0,0,1-.1-.042.154.154,0,0,1,0-.221c.207-.221.442-.538.345-.773s-.538-.331-.731-.331c-.428,0-.635-.759-.662-.911a.138.138,0,0,1,.11-.179.149.149,0,0,1,.179.11c.069.317.248.676.373.676.207,0,.828.1,1.007.524.124.3-.014.676-.414,1.09A.125.125,0,0,1,737.1,1099.411Z" transform="translate(-731.36 -1093.656)" fill="#102048"/>
                <path id="_Path_53" data-name="&lt;Path&gt;" d="M729.9,1125.291a.258.258,0,0,1-.083-.014,2.015,2.015,0,0,0-2.028-.11.151.151,0,1,1-.152-.262,2.341,2.341,0,0,1,2.36.11.156.156,0,0,1,.028.221A.135.135,0,0,1,729.9,1125.291Z" transform="translate(-724.128 -1117.521)" fill="#102048"/>
                <path id="_Path_54" data-name="&lt;Path&gt;" d="M704.975,1084.625c.3.566-.235.676-.842,1.007s-1.256.455-1.408.179.248-.759.869-1.09S704.74,1084.183,704.975,1084.625Z" transform="translate(-702.698 -1082.816)" fill="#102048"/>
                <path id="_Path_55" data-name="&lt;Path&gt;" d="M736.314,1073.162c.552-.138,1.049-.069,1.1.179s-.373.524-.925.662-.938.373-1.076-.138C735.32,1073.466,735.762,1073.314,736.314,1073.162Z" transform="translate(-730.89 -1073.092)" fill="#102048"/>
              </g>
              <path id="_Path_56" data-name="&lt;Path&gt;" d="M694.832,1111.073a1.566,1.566,0,1,1-1.573-1.573A1.572,1.572,0,0,1,694.832,1111.073Z" transform="translate(-677.085 -1096.454)" fill="#eb5d60" opacity="0.4"/>
              <path id="_Path_57" data-name="&lt;Path&gt;" d="M646.623,1105.242a2.149,2.149,0,1,1-3.215.207A2.3,2.3,0,0,1,646.623,1105.242Z" transform="translate(-635.112 -1092.307)" fill="#f9b384"/>
              <path id="_Path_58" data-name="&lt;Path&gt;" d="M654.478,1115.71a.153.153,0,0,1-.152-.152,1.348,1.348,0,0,0-.58-1.1,1.088,1.088,0,0,0-.994-.138.151.151,0,0,1-.207-.083.16.16,0,0,1,.083-.193,1.389,1.389,0,0,1,1.283.166,1.637,1.637,0,0,1,.718,1.352A.153.153,0,0,1,654.478,1115.71Z" transform="translate(-643.326 -1100.291)" fill="#102048"/>
            </g>
            <g id="_Group_24" data-name="&lt;Group&gt;" transform="translate(15.036 26.375)">
              <path id="_Path_59" data-name="&lt;Path&gt;" d="M470.562,1212.227l-.262-.235,5.451-5.892.248.235Z" transform="translate(-470.3 -1206.1)" fill="#102048"/>
              <path id="_Path_60" data-name="&lt;Path&gt;" d="M787.21,1343.741l-.11-.331c3.974-1.214,7.824-2.649,11.3-7.01l.276.207c-3.546,4.443-7.451,5.906-11.467,7.134Z" transform="translate(-743.385 -1318.42)" fill="#102048"/>
            </g>
          </g>
          <g id="_Group_25" data-name="&lt;Group&gt;" transform="translate(25.344 38.339)">
            <g id="_Group_26" data-name="&lt;Group&gt;">
              <path id="_Path_61" data-name="&lt;Path&gt;" d="M583.127,1295.174v24.079a2.3,2.3,0,0,1-2.208,2.373H547.194a2.287,2.287,0,0,1-2.194-2.373v-24.079a2.287,2.287,0,0,1,2.194-2.374h33.725A2.3,2.3,0,0,1,583.127,1295.174Z" transform="translate(-545 -1292.8)" fill="#d3dfff"/>
            </g>
            <g id="_Group_27" data-name="&lt;Group&gt;" transform="translate(16.352 12.198)">
              <path id="_Compound_Path_3" data-name="&lt;Compound Path&gt;" d="M668.909,1382.138v2.553a.937.937,0,0,1-.924.938h-3.56a.937.937,0,0,1-.925-.938v-2.553a.936.936,0,0,1,.925-.938h3.56A.936.936,0,0,1,668.909,1382.138Zm-4.485-.248a.245.245,0,0,0-.235.248v2.553a.245.245,0,0,0,.235.248h3.56a.236.236,0,0,0,.234-.248v-2.553a.236.236,0,0,0-.234-.248Z" transform="translate(-663.5 -1381.2)" fill="#1f3c88" fill-rule="evenodd"/>
            </g>
          </g>
        </g>
      </g>
      <path id="_Path_62" data-name="&lt;Path&gt;" d="M483.643,1682.79H280.3v-.69H483.643Z" transform="translate(-280.3 -1501.181)" fill="#102048"/>
    </g>
  </g>
</svg>
